<svg xmlns="http://www.w3.org/2000/svg" xmlns:xlink="http://www.w3.org/1999/xlink" width="500" zoomAndPan="magnify" viewBox="0 0 375 374.999991" height="500" preserveAspectRatio="xMidYMid meet" version="1.0"><defs><g/><clipPath id="83b527e280"><path d="M 73.957031 154.855469 L 301.523438 154.855469 L 301.523438 220.035156 L 73.957031 220.035156 Z M 73.957031 154.855469 " clip-rule="nonzero"/></clipPath><clipPath id="785ac5a623"><path d="M 77.03125 155.738281 L 297.96875 155.738281 L 297.96875 219.8125 L 77.03125 219.8125 Z M 77.03125 155.738281 " clip-rule="nonzero"/></clipPath><clipPath id="0fe4bbe6d8"><path d="M 104 171.582031 L 148.171875 171.582031 L 148.171875 204.722656 L 104 204.722656 Z M 104 171.582031 " clip-rule="nonzero"/></clipPath></defs><g clip-path="url(#83b527e280)"><path fill="#ee4962" d="M 301.039062 154.910156 L 94.324219 154.910156 L 73.957031 220.082031 L 280.675781 220.082031 Z M 301.039062 154.910156 " fill-opacity="1" fill-rule="nonzero"/></g><g clip-path="url(#785ac5a623)"><path fill="#ffffff" d="M 297.96875 155.796875 L 96.84375 155.796875 L 77.03125 219.203125 L 278.15625 219.203125 Z M 297.96875 155.796875 " fill-opacity="1" fill-rule="nonzero"/></g><g clip-path="url(#0fe4bbe6d8)"><path fill="#ee4962" d="M 147.554688 199.832031 C 147.554688 199.828125 147.554688 199.828125 147.554688 199.832031 C 147.554688 199.828125 147.554688 199.828125 147.554688 199.828125 L 147.09375 196.921875 L 143.335938 173.261719 C 143.320312 173.164062 143.261719 173.070312 143.179688 173.011719 C 143.097656 172.953125 143 172.925781 142.894531 172.941406 L 136.433594 173.96875 C 136.222656 174.003906 136.082031 174.199219 136.113281 174.410156 L 136.996094 179.957031 L 130.488281 179.957031 L 130.488281 171.925781 C 130.488281 171.710938 130.316406 171.539062 130.105469 171.539062 L 119.378906 171.539062 C 119.167969 171.539062 118.996094 171.710938 118.996094 171.925781 L 118.996094 176.417969 L 108.78125 174.917969 C 108.574219 174.894531 108.371094 175.035156 108.339844 175.246094 L 107.699219 179.625 C 107.699219 179.628906 107.699219 179.628906 107.699219 179.628906 C 107.699219 179.632812 107.699219 179.632812 107.699219 179.632812 L 107.28125 182.460938 C 107.28125 182.460938 107.28125 182.464844 107.28125 182.464844 L 105.320312 195.8125 C 105.320312 195.8125 105.320312 195.8125 105.320312 195.816406 L 104.957031 198.296875 C 104.957031 198.296875 104.953125 198.296875 104.953125 198.296875 C 104.953125 198.300781 104.957031 198.300781 104.953125 198.300781 L 104.261719 203.007812 C 104.246094 203.109375 104.273438 203.210938 104.335938 203.296875 C 104.394531 203.375 104.488281 203.429688 104.589844 203.445312 L 115.246094 205.011719 C 115.261719 205.011719 115.28125 205.015625 115.300781 205.015625 C 115.488281 205.015625 115.652344 204.878906 115.679688 204.683594 L 116.351562 200.113281 C 116.351562 200.109375 116.355469 200.109375 116.355469 200.105469 C 116.355469 200.105469 116.355469 200.105469 116.355469 200.101562 L 116.730469 197.542969 C 116.730469 197.542969 116.730469 197.542969 116.730469 197.539062 C 116.730469 197.539062 116.730469 197.539062 116.730469 197.535156 L 118.675781 184.308594 C 118.675781 184.304688 118.675781 184.304688 118.675781 184.304688 C 118.675781 184.304688 118.675781 184.304688 118.675781 184.300781 L 118.996094 182.136719 L 118.996094 204.558594 C 118.996094 204.769531 119.167969 204.941406 119.378906 204.941406 L 137.390625 204.941406 C 137.601562 204.941406 137.773438 204.769531 137.773438 204.558594 L 137.773438 184.863281 L 139.875 198.089844 C 139.875 198.089844 139.875 198.089844 139.875 198.09375 L 140.945312 204.847656 C 140.964844 204.945312 141.019531 205.039062 141.101562 205.097656 C 141.167969 205.144531 141.246094 205.171875 141.328125 205.171875 C 141.347656 205.171875 141.367188 205.171875 141.386719 205.167969 L 147.847656 204.140625 C 148.058594 204.105469 148.199219 203.910156 148.167969 203.699219 Z M 117.972656 183.800781 L 108.097656 182.207031 L 108.402344 180.128906 L 118.285156 181.667969 Z M 115.648438 199.605469 L 105.773438 198.039062 L 106.027344 196.308594 L 115.914062 197.804688 Z M 116.027344 197.042969 L 106.136719 195.550781 L 107.988281 182.96875 L 117.859375 184.5625 Z M 130.488281 187.355469 L 137.003906 187.355469 L 137.003906 189.582031 L 130.488281 189.582031 Z M 129.71875 180.34375 L 129.71875 194.878906 L 119.765625 194.878906 L 119.765625 177.601562 L 129.71875 177.601562 Z M 129.71875 176.832031 L 119.765625 176.832031 L 119.765625 175.683594 L 129.71875 175.683594 Z M 119.765625 195.648438 L 129.71875 195.648438 L 129.71875 198.347656 L 119.765625 198.347656 Z M 130.488281 190.351562 L 137.003906 190.351562 L 137.003906 201.316406 L 130.488281 201.316406 Z M 137.003906 180.730469 L 137.003906 186.582031 L 130.488281 186.582031 L 130.488281 180.730469 Z M 129.71875 172.308594 L 129.71875 174.914062 L 119.765625 174.914062 L 119.765625 172.308594 Z M 109.046875 175.738281 L 118.941406 177.191406 L 118.398438 180.90625 L 108.515625 179.367188 Z M 114.976562 204.191406 L 105.082031 202.738281 L 105.660156 198.800781 L 115.539062 200.367188 Z M 119.765625 199.117188 L 129.71875 199.117188 L 129.71875 204.171875 L 119.765625 204.171875 Z M 130.488281 204.171875 L 130.488281 202.085938 L 137.003906 202.085938 L 137.003906 204.171875 Z M 140.695312 198.347656 L 146.390625 197.425781 L 146.734375 199.585938 L 141.058594 200.632812 Z M 138.199219 182.632812 L 143.882812 181.625 L 146.273438 196.667969 L 140.574219 197.589844 Z M 137.78125 179.996094 L 143.460938 178.972656 L 143.761719 180.863281 L 138.078125 181.871094 Z M 142.632812 173.765625 L 143.339844 178.210938 L 137.660156 179.234375 L 136.933594 174.667969 Z M 141.648438 204.34375 L 141.179688 201.398438 L 146.855469 200.351562 L 147.347656 203.441406 Z M 141.648438 204.34375 " fill-opacity="1" fill-rule="nonzero"/></g><g fill="#ee4962" fill-opacity="1"><g transform="translate(181.258322, 183.364482)"><g><path d="M 0.78125 0 L 0.78125 -2.4375 L 4.375 -2.4375 L 4.375 -11.6875 L 4.140625 -11.75 C 3.628906 -11.5 3.128906 -11.300781 2.640625 -11.15625 C 2.148438 -11.019531 1.585938 -10.910156 0.953125 -10.828125 L 0.953125 -13.34375 C 2.597656 -13.6875 3.929688 -14.195312 4.953125 -14.875 L 7.28125 -14.875 L 7.28125 -2.4375 L 10.484375 -2.4375 L 10.484375 0 Z M 0.78125 0 "/></g></g></g><g fill="#ee4962" fill-opacity="1"><g transform="translate(192.233106, 183.364482)"><g><path d="M 7.265625 0.21875 C 6.046875 0.21875 4.988281 -0.0507812 4.09375 -0.59375 C 3.195312 -1.132812 2.5 -1.972656 2 -3.109375 C 1.5 -4.253906 1.25 -5.695312 1.25 -7.4375 C 1.25 -9.175781 1.5 -10.613281 2 -11.75 C 2.5 -12.894531 3.195312 -13.734375 4.09375 -14.265625 C 4.988281 -14.804688 6.046875 -15.078125 7.265625 -15.078125 C 8.484375 -15.078125 9.539062 -14.804688 10.4375 -14.265625 C 11.332031 -13.734375 12.03125 -12.894531 12.53125 -11.75 C 13.03125 -10.613281 13.28125 -9.175781 13.28125 -7.4375 C 13.28125 -5.695312 13.03125 -4.253906 12.53125 -3.109375 C 12.03125 -1.972656 11.332031 -1.132812 10.4375 -0.59375 C 9.539062 -0.0507812 8.484375 0.21875 7.265625 0.21875 Z M 7.265625 -2.28125 C 7.929688 -2.28125 8.484375 -2.441406 8.921875 -2.765625 C 9.367188 -3.085938 9.710938 -3.625 9.953125 -4.375 C 10.203125 -5.132812 10.328125 -6.15625 10.328125 -7.4375 C 10.328125 -8.707031 10.203125 -9.722656 9.953125 -10.484375 C 9.710938 -11.242188 9.367188 -11.785156 8.921875 -12.109375 C 8.484375 -12.429688 7.929688 -12.59375 7.265625 -12.59375 C 6.597656 -12.59375 6.039062 -12.429688 5.59375 -12.109375 C 5.144531 -11.785156 4.800781 -11.242188 4.5625 -10.484375 C 4.320312 -9.722656 4.203125 -8.707031 4.203125 -7.4375 C 4.203125 -6.15625 4.320312 -5.132812 4.5625 -4.375 C 4.800781 -3.625 5.144531 -3.085938 5.59375 -2.765625 C 6.039062 -2.441406 6.597656 -2.28125 7.265625 -2.28125 Z M 7.265625 -2.28125 "/></g></g></g><g fill="#ee4962" fill-opacity="1"><g transform="translate(206.767827, 183.364482)"><g><path d="M 6.703125 -8.609375 L 10.0625 -8.609375 L 10.0625 -6.265625 L 6.703125 -6.265625 L 6.703125 -2.84375 L 4.265625 -2.84375 L 4.265625 -6.265625 L 0.890625 -6.265625 L 0.890625 -8.609375 L 4.265625 -8.609375 L 4.265625 -12.015625 L 6.703125 -12.015625 Z M 6.703125 -8.609375 "/></g></g></g><g fill="#ee4962" fill-opacity="1"><g transform="translate(217.74815, 183.364482)"><g/></g></g><g fill="#737373" fill-opacity="1"><g transform="translate(171.942898, 203.318868)"><g><path d="M 9.890625 -3.6875 C 9.753906 -2.457031 9.300781 -1.507812 8.53125 -0.84375 C 7.769531 -0.175781 6.753906 0.15625 5.484375 0.15625 C 4.117188 0.15625 3.019531 -0.332031 2.1875 -1.3125 C 1.363281 -2.300781 0.953125 -3.617188 0.953125 -5.265625 L 0.953125 -6.390625 C 0.953125 -7.460938 1.144531 -8.410156 1.53125 -9.234375 C 1.914062 -10.054688 2.460938 -10.6875 3.171875 -11.125 C 3.878906 -11.5625 4.695312 -11.78125 5.625 -11.78125 C 6.863281 -11.78125 7.851562 -11.4375 8.59375 -10.75 C 9.34375 -10.0625 9.773438 -9.109375 9.890625 -7.890625 L 8.359375 -7.890625 C 8.222656 -8.804688 7.929688 -9.472656 7.484375 -9.890625 C 7.046875 -10.304688 6.425781 -10.515625 5.625 -10.515625 C 4.644531 -10.515625 3.875 -10.148438 3.3125 -9.421875 C 2.757812 -8.703125 2.484375 -7.675781 2.484375 -6.34375 L 2.484375 -5.21875 C 2.484375 -3.957031 2.742188 -2.953125 3.265625 -2.203125 C 3.796875 -1.460938 4.535156 -1.09375 5.484375 -1.09375 C 6.335938 -1.09375 6.988281 -1.285156 7.4375 -1.671875 C 7.894531 -2.054688 8.203125 -2.726562 8.359375 -3.6875 Z M 9.890625 -3.6875 "/></g></g></g><g fill="#737373" fill-opacity="1"><g transform="translate(182.582209, 203.318868)"><g><path d="M 0.71875 -4.390625 C 0.71875 -5.242188 0.882812 -6.003906 1.21875 -6.671875 C 1.550781 -7.347656 2.015625 -7.867188 2.609375 -8.234375 C 3.203125 -8.609375 3.878906 -8.796875 4.640625 -8.796875 C 5.816406 -8.796875 6.769531 -8.390625 7.5 -7.578125 C 8.226562 -6.765625 8.59375 -5.679688 8.59375 -4.328125 L 8.59375 -4.21875 C 8.59375 -3.375 8.429688 -2.617188 8.109375 -1.953125 C 7.785156 -1.285156 7.320312 -0.765625 6.71875 -0.390625 C 6.125 -0.0234375 5.4375 0.15625 4.65625 0.15625 C 3.488281 0.15625 2.539062 -0.25 1.8125 -1.0625 C 1.082031 -1.875 0.71875 -2.953125 0.71875 -4.296875 Z M 2.203125 -4.21875 C 2.203125 -3.257812 2.425781 -2.488281 2.875 -1.90625 C 3.320312 -1.332031 3.914062 -1.046875 4.65625 -1.046875 C 5.40625 -1.046875 6 -1.335938 6.4375 -1.921875 C 6.882812 -2.515625 7.109375 -3.335938 7.109375 -4.390625 C 7.109375 -5.335938 6.882812 -6.101562 6.4375 -6.6875 C 5.988281 -7.28125 5.390625 -7.578125 4.640625 -7.578125 C 3.910156 -7.578125 3.320312 -7.285156 2.875 -6.703125 C 2.425781 -6.128906 2.203125 -5.300781 2.203125 -4.21875 Z M 2.203125 -4.21875 "/></g></g></g><g fill="#737373" fill-opacity="1"><g transform="translate(191.90457, 203.318868)"><g><path d="M 6.453125 -0.859375 C 5.878906 -0.179688 5.035156 0.15625 3.921875 0.15625 C 2.992188 0.15625 2.289062 -0.109375 1.8125 -0.640625 C 1.332031 -1.171875 1.085938 -1.960938 1.078125 -3.015625 L 1.078125 -8.640625 L 2.5625 -8.640625 L 2.5625 -3.0625 C 2.5625 -1.75 3.09375 -1.09375 4.15625 -1.09375 C 5.28125 -1.09375 6.03125 -1.515625 6.40625 -2.359375 L 6.40625 -8.640625 L 7.890625 -8.640625 L 7.890625 0 L 6.484375 0 Z M 6.453125 -0.859375 "/></g></g></g><g fill="#737373" fill-opacity="1"><g transform="translate(200.915661, 203.318868)"><g><path d="M 5.296875 -7.3125 C 5.066406 -7.34375 4.820312 -7.359375 4.5625 -7.359375 C 3.59375 -7.359375 2.9375 -6.945312 2.59375 -6.125 L 2.59375 0 L 1.125 0 L 1.125 -8.640625 L 2.546875 -8.640625 L 2.578125 -7.640625 C 3.054688 -8.410156 3.742188 -8.796875 4.640625 -8.796875 C 4.921875 -8.796875 5.140625 -8.757812 5.296875 -8.6875 Z M 5.296875 -7.3125 "/></g></g></g><g fill="#737373" fill-opacity="1"><g transform="translate(206.44683, 203.318868)"><g><path d="M 6.140625 -2.296875 C 6.140625 -2.691406 5.988281 -3 5.6875 -3.21875 C 5.394531 -3.4375 4.875 -3.625 4.125 -3.78125 C 3.375 -3.945312 2.78125 -4.140625 2.34375 -4.359375 C 1.90625 -4.585938 1.578125 -4.851562 1.359375 -5.15625 C 1.148438 -5.46875 1.046875 -5.835938 1.046875 -6.265625 C 1.046875 -6.972656 1.34375 -7.570312 1.9375 -8.0625 C 2.539062 -8.550781 3.3125 -8.796875 4.25 -8.796875 C 5.226562 -8.796875 6.019531 -8.539062 6.625 -8.03125 C 7.238281 -7.53125 7.546875 -6.882812 7.546875 -6.09375 L 6.0625 -6.09375 C 6.0625 -6.5 5.890625 -6.847656 5.546875 -7.140625 C 5.203125 -7.429688 4.769531 -7.578125 4.25 -7.578125 C 3.707031 -7.578125 3.285156 -7.457031 2.984375 -7.21875 C 2.679688 -6.988281 2.53125 -6.6875 2.53125 -6.3125 C 2.53125 -5.957031 2.671875 -5.6875 2.953125 -5.5 C 3.234375 -5.320312 3.742188 -5.148438 4.484375 -4.984375 C 5.222656 -4.816406 5.816406 -4.617188 6.265625 -4.390625 C 6.722656 -4.160156 7.0625 -3.882812 7.28125 -3.5625 C 7.507812 -3.25 7.625 -2.859375 7.625 -2.390625 C 7.625 -1.617188 7.3125 -1 6.6875 -0.53125 C 6.070312 -0.0703125 5.273438 0.15625 4.296875 0.15625 C 3.597656 0.15625 2.984375 0.0351562 2.453125 -0.203125 C 1.921875 -0.453125 1.503906 -0.796875 1.203125 -1.234375 C 0.910156 -1.671875 0.765625 -2.144531 0.765625 -2.65625 L 2.234375 -2.65625 C 2.265625 -2.164062 2.460938 -1.773438 2.828125 -1.484375 C 3.203125 -1.191406 3.691406 -1.046875 4.296875 -1.046875 C 4.847656 -1.046875 5.289062 -1.15625 5.625 -1.375 C 5.96875 -1.601562 6.140625 -1.910156 6.140625 -2.296875 Z M 6.140625 -2.296875 "/></g></g></g><g fill="#737373" fill-opacity="1"><g transform="translate(214.875265, 203.318868)"><g><path d="M 4.703125 0.15625 C 3.523438 0.15625 2.566406 -0.222656 1.828125 -0.984375 C 1.097656 -1.753906 0.734375 -2.785156 0.734375 -4.078125 L 0.734375 -4.34375 C 0.734375 -5.207031 0.894531 -5.972656 1.21875 -6.640625 C 1.550781 -7.316406 2.007812 -7.84375 2.59375 -8.21875 C 3.1875 -8.601562 3.828125 -8.796875 4.515625 -8.796875 C 5.640625 -8.796875 6.507812 -8.425781 7.125 -7.6875 C 7.75 -6.945312 8.0625 -5.890625 8.0625 -4.515625 L 8.0625 -3.890625 L 2.21875 -3.890625 C 2.238281 -3.046875 2.484375 -2.359375 2.953125 -1.828125 C 3.429688 -1.304688 4.039062 -1.046875 4.78125 -1.046875 C 5.300781 -1.046875 5.738281 -1.148438 6.09375 -1.359375 C 6.457031 -1.578125 6.773438 -1.859375 7.046875 -2.203125 L 7.953125 -1.515625 C 7.234375 -0.398438 6.148438 0.15625 4.703125 0.15625 Z M 4.515625 -7.578125 C 3.921875 -7.578125 3.421875 -7.359375 3.015625 -6.921875 C 2.609375 -6.492188 2.359375 -5.890625 2.265625 -5.109375 L 6.59375 -5.109375 L 6.59375 -5.21875 C 6.550781 -5.96875 6.347656 -6.546875 5.984375 -6.953125 C 5.617188 -7.367188 5.128906 -7.578125 4.515625 -7.578125 Z M 4.515625 -7.578125 "/></g></g></g><g fill="#737373" fill-opacity="1"><g transform="translate(223.535171, 203.318868)"><g><path d="M 6.140625 -2.296875 C 6.140625 -2.691406 5.988281 -3 5.6875 -3.21875 C 5.394531 -3.4375 4.875 -3.625 4.125 -3.78125 C 3.375 -3.945312 2.78125 -4.140625 2.34375 -4.359375 C 1.90625 -4.585938 1.578125 -4.851562 1.359375 -5.15625 C 1.148438 -5.46875 1.046875 -5.835938 1.046875 -6.265625 C 1.046875 -6.972656 1.34375 -7.570312 1.9375 -8.0625 C 2.539062 -8.550781 3.3125 -8.796875 4.25 -8.796875 C 5.226562 -8.796875 6.019531 -8.539062 6.625 -8.03125 C 7.238281 -7.53125 7.546875 -6.882812 7.546875 -6.09375 L 6.0625 -6.09375 C 6.0625 -6.5 5.890625 -6.847656 5.546875 -7.140625 C 5.203125 -7.429688 4.769531 -7.578125 4.25 -7.578125 C 3.707031 -7.578125 3.285156 -7.457031 2.984375 -7.21875 C 2.679688 -6.988281 2.53125 -6.6875 2.53125 -6.3125 C 2.53125 -5.957031 2.671875 -5.6875 2.953125 -5.5 C 3.234375 -5.320312 3.742188 -5.148438 4.484375 -4.984375 C 5.222656 -4.816406 5.816406 -4.617188 6.265625 -4.390625 C 6.722656 -4.160156 7.0625 -3.882812 7.28125 -3.5625 C 7.507812 -3.25 7.625 -2.859375 7.625 -2.390625 C 7.625 -1.617188 7.3125 -1 6.6875 -0.53125 C 6.070312 -0.0703125 5.273438 0.15625 4.296875 0.15625 C 3.597656 0.15625 2.984375 0.0351562 2.453125 -0.203125 C 1.921875 -0.453125 1.503906 -0.796875 1.203125 -1.234375 C 0.910156 -1.671875 0.765625 -2.144531 0.765625 -2.65625 L 2.234375 -2.65625 C 2.265625 -2.164062 2.460938 -1.773438 2.828125 -1.484375 C 3.203125 -1.191406 3.691406 -1.046875 4.296875 -1.046875 C 4.847656 -1.046875 5.289062 -1.15625 5.625 -1.375 C 5.96875 -1.601562 6.140625 -1.910156 6.140625 -2.296875 Z M 6.140625 -2.296875 "/></g></g></g></svg>