<svg xmlns="http://www.w3.org/2000/svg" xmlns:xlink="http://www.w3.org/1999/xlink" width="500" zoomAndPan="magnify" viewBox="0 0 375 374.999991" height="500" preserveAspectRatio="xMidYMid meet" version="1.0"><defs><clipPath id="f7617c6ac6"><path d="M 114.554688 93.976562 L 260.804688 93.976562 L 260.804688 280.726562 L 114.554688 280.726562 Z M 114.554688 93.976562 " clip-rule="nonzero"/></clipPath></defs><g clip-path="url(#f7617c6ac6)"><path fill="#f8941f" d="M 258.984375 116.8125 L 186.796875 94.066406 C 186.417969 93.949219 186.007812 93.949219 185.628906 94.074219 L 115.992188 116.820312 C 115.207031 117.074219 114.675781 117.808594 114.675781 118.632812 L 114.675781 166.296875 C 114.675781 214.832031 142.933594 259.789062 186.667969 280.832031 C 186.929688 280.957031 187.210938 281.019531 187.496094 281.019531 C 187.78125 281.019531 188.0625 280.957031 188.324219 280.832031 C 232.058594 259.789062 260.316406 214.832031 260.316406 166.296875 L 260.316406 118.632812 C 260.316406 117.800781 259.777344 117.0625 258.984375 116.8125 Z M 242.589844 166.296875 C 242.589844 204.921875 221.847656 241.085938 188.460938 260.683594 C 188.164062 260.859375 187.828125 260.945312 187.496094 260.945312 C 187.164062 260.945312 186.828125 260.859375 186.53125 260.683594 C 153.144531 241.085938 132.402344 204.921875 132.402344 166.296875 L 132.402344 131.496094 C 132.402344 130.671875 132.933594 129.9375 133.71875 129.683594 L 185.726562 112.691406 C 186.105469 112.566406 186.515625 112.566406 186.890625 112.683594 L 241.253906 129.816406 C 242.046875 130.070312 242.589844 130.804688 242.589844 131.640625 Z M 242.589844 166.296875 " fill-opacity="1" fill-rule="nonzero"/></g><path fill="#f8941f" d="M 209.664062 173.058594 L 209.21875 173.058594 L 209.21875 173.054688 L 209.203125 173.054688 L 209.203125 158.515625 C 209.203125 146.53125 199.472656 136.796875 187.484375 136.796875 C 175.5 136.796875 165.765625 146.53125 165.765625 158.515625 L 165.765625 173.058594 L 165.34375 173.058594 C 160.460938 173.058594 156.488281 177.027344 156.488281 181.914062 L 156.488281 209.894531 C 156.488281 214.78125 160.460938 218.75 165.34375 218.75 L 209.664062 218.75 C 214.511719 218.75 218.480469 214.78125 218.480469 209.894531 L 218.480469 181.914062 C 218.480469 177.027344 214.511719 173.058594 209.664062 173.058594 Z M 178.894531 158.515625 C 178.894531 153.78125 182.75 149.886719 187.484375 149.886719 C 192.257812 149.886719 196.113281 153.78125 196.113281 158.515625 L 196.113281 173.058594 L 178.894531 173.058594 Z M 189.394531 201.039062 L 189.394531 207.261719 C 189.394531 208.328125 188.554688 209.167969 187.484375 209.167969 C 186.453125 209.167969 185.578125 208.328125 185.578125 207.261719 L 185.578125 201.039062 C 181.378906 200.160156 178.246094 196.421875 178.246094 191.953125 C 178.246094 186.800781 182.371094 182.601562 187.484375 182.601562 C 192.601562 182.601562 196.761719 186.800781 196.761719 191.953125 C 196.761719 196.421875 193.59375 200.160156 189.394531 201.039062 Z M 189.394531 201.039062 " fill-opacity="1" fill-rule="nonzero"/></svg>