<svg xmlns="http://www.w3.org/2000/svg" xmlns:xlink="http://www.w3.org/1999/xlink" width="500" zoomAndPan="magnify" viewBox="0 0 375 374.999991" height="500" preserveAspectRatio="xMidYMid meet" version="1.0"><defs><clipPath id="fd11e0a551"><path d="M 97.65625 148 L 226 148 L 226 239 L 97.65625 239 Z M 97.65625 148 " clip-rule="nonzero"/></clipPath><clipPath id="bca4fc2d52"><path d="M 97.65625 122.585938 L 226 122.585938 L 226 154 L 97.65625 154 Z M 97.65625 122.585938 " clip-rule="nonzero"/></clipPath></defs><path fill="#ee4962" d="M 256.53125 244.488281 C 245.972656 244.488281 236.339844 235.570312 231.007812 226.140625 L 208.355469 226.140625 C 204.359375 233.210938 198.925781 238.851562 192.570312 242.027344 C 171.660156 252.378906 158.949219 229.214844 172.273438 206.253906 C 180.476562 191.90625 195.234375 184.933594 205.074219 190.570312 C 207.125 191.800781 208.867188 193.441406 210.199219 195.59375 L 229.164062 195.59375 C 230.496094 193.542969 232.238281 191.800781 234.289062 190.570312 C 244.128906 184.933594 258.886719 191.90625 267.191406 206.253906 C 277.339844 223.988281 272.625 244.488281 256.53125 244.488281 Z M 207.125 222.039062 L 232.238281 222.039062 C 233.777344 222.039062 234.183594 223.472656 235.003906 224.808594 C 240.539062 234.542969 252.839844 244.28125 262.167969 238.953125 C 270.0625 234.339844 270.675781 220.605469 263.601562 208.304688 C 254.6875 192.828125 238.183594 187.496094 232.136719 198.667969 C 231.726562 199.285156 231.007812 199.695312 230.289062 199.695312 L 209.074219 199.695312 C 206.714844 199.695312 207.433594 196.722656 203.023438 194.160156 C 195.132812 189.648438 182.933594 196.003906 175.761719 208.304688 C 164.484375 227.882812 173.710938 246.742188 190.726562 238.335938 C 196.566406 235.46875 201.898438 229.828125 205.28125 223.167969 C 205.691406 222.449219 206.40625 222.039062 207.125 222.039062 Z M 207.125 222.039062 " fill-opacity="1" fill-rule="evenodd"/><path fill="#ee4962" d="M 245.253906 207.382812 C 242.691406 207.382812 243.207031 204.101562 243.207031 201.847656 C 243.207031 199.183594 247.304688 199.183594 247.304688 201.847656 C 247.304688 204.203125 247.921875 207.382812 245.253906 207.382812 Z M 245.253906 207.382812 " fill-opacity="1" fill-rule="evenodd"/><path fill="#ee4962" d="M 254.480469 212.816406 C 252.121094 212.816406 248.945312 213.328125 248.945312 210.765625 C 248.945312 208.097656 252.121094 208.714844 254.480469 208.714844 C 257.144531 208.714844 257.144531 212.816406 254.480469 212.816406 Z M 254.480469 212.816406 " fill-opacity="1" fill-rule="evenodd"/><path fill="#ee4962" d="M 245.5625 221.9375 C 242.898438 221.9375 243.511719 218.757812 243.511719 216.402344 C 243.511719 213.738281 247.613281 213.738281 247.613281 216.402344 C 247.613281 218.757812 248.125 221.9375 245.5625 221.9375 Z M 245.5625 221.9375 " fill-opacity="1" fill-rule="evenodd"/><path fill="#ee4962" d="M 239.824219 213.121094 C 237.566406 213.121094 234.289062 213.632812 234.289062 211.070312 C 234.289062 208.40625 237.566406 209.023438 239.824219 209.023438 C 242.589844 209.023438 242.589844 213.121094 239.824219 213.121094 Z M 239.824219 213.121094 " fill-opacity="1" fill-rule="evenodd"/><path fill="#ee4962" d="M 192.570312 221.9375 C 191.441406 221.9375 190.519531 221.015625 190.519531 219.886719 L 190.519531 204.71875 C 190.519531 201.949219 194.621094 201.949219 194.621094 204.71875 L 194.621094 219.886719 C 194.621094 221.015625 193.699219 221.9375 192.570312 221.9375 Z M 192.570312 221.9375 " fill-opacity="1" fill-rule="evenodd"/><path fill="#ee4962" d="M 200.15625 214.351562 L 184.882812 214.351562 C 182.21875 214.351562 182.21875 210.253906 184.882812 210.253906 L 200.15625 210.253906 C 202.820312 210.253906 202.820312 214.351562 200.15625 214.351562 Z M 200.15625 214.351562 " fill-opacity="1" fill-rule="evenodd"/><path fill="#ee4962" d="M 230.289062 199.695312 L 209.074219 199.695312 C 207.945312 199.695312 207.023438 198.773438 207.023438 197.644531 L 207.023438 187.496094 C 207.023438 186.371094 207.945312 185.445312 209.074219 185.445312 L 230.289062 185.445312 C 231.417969 185.445312 232.339844 186.371094 232.339844 187.496094 L 232.339844 197.644531 C 232.339844 198.773438 231.417969 199.695312 230.289062 199.695312 Z M 211.121094 195.59375 L 228.242188 195.59375 L 228.242188 189.546875 L 211.121094 189.546875 Z M 211.121094 195.59375 " fill-opacity="1" fill-rule="evenodd"/><path fill="#ee4962" d="M 226.601562 209.125 L 212.761719 209.125 C 210.097656 209.125 210.097656 205.023438 212.761719 205.023438 L 226.601562 205.023438 C 229.265625 205.023438 229.265625 209.125 226.601562 209.125 Z M 226.601562 209.125 " fill-opacity="1" fill-rule="evenodd"/><path fill="#ee4962" d="M 226.601562 216.710938 L 212.761719 216.710938 C 210.097656 216.710938 210.097656 212.609375 212.761719 212.609375 L 226.601562 212.609375 C 229.265625 212.609375 229.265625 216.710938 226.601562 216.710938 Z M 226.601562 216.710938 " fill-opacity="1" fill-rule="evenodd"/><path fill="#ee4962" d="M 147.574219 193.851562 C 147.058594 193.851562 146.546875 193.648438 146.136719 193.238281 L 134.964844 181.960938 C 134.144531 181.246094 134.144531 179.910156 134.964844 179.089844 L 146.136719 167.816406 C 148.085938 165.972656 150.953125 168.839844 149.007812 170.789062 L 139.269531 180.527344 L 149.007812 190.367188 C 150.339844 191.597656 149.417969 193.851562 147.574219 193.851562 Z M 147.574219 193.851562 " fill-opacity="1" fill-rule="evenodd"/><path fill="#ee4962" d="M 175.554688 193.851562 C 173.710938 193.851562 172.789062 191.597656 174.015625 190.367188 L 183.859375 180.527344 L 174.015625 170.789062 C 172.171875 168.839844 175.042969 165.972656 176.988281 167.816406 L 188.164062 179.089844 C 188.984375 179.910156 188.984375 181.140625 188.164062 181.960938 L 176.988281 193.238281 C 176.582031 193.648438 176.066406 193.851562 175.554688 193.851562 Z M 175.554688 193.851562 " fill-opacity="1" fill-rule="evenodd"/><path fill="#ee4962" d="M 154.335938 195.59375 C 152.699219 195.59375 151.773438 193.851562 152.492188 192.519531 L 167.558594 166.484375 C 168.890625 164.125 172.480469 166.175781 171.148438 168.535156 L 156.078125 194.570312 C 155.671875 195.285156 155.054688 195.59375 154.335938 195.59375 Z M 154.335938 195.59375 " fill-opacity="1" fill-rule="evenodd"/><g clip-path="url(#fd11e0a551)"><path fill="#ee4962" d="M 215.429688 238.441406 L 197.488281 238.441406 C 195.542969 238.441406 194.722656 235.980469 196.15625 234.75 C 200.050781 231.570312 203.539062 227.882812 206.101562 223.167969 C 206.40625 222.449219 207.125 222.039062 207.84375 222.039062 L 223.421875 222.039062 C 226.085938 222.039062 225.472656 225.628906 225.472656 228.394531 C 225.472656 233.929688 220.960938 238.441406 215.429688 238.441406 Z M 202.820312 234.339844 L 215.429688 234.339844 C 218.707031 234.339844 221.371094 231.675781 221.371094 228.394531 L 221.371094 226.140625 L 209.074219 226.140625 C 207.332031 229.214844 205.179688 231.980469 202.820312 234.339844 Z M 171.660156 238.441406 L 107.699219 238.441406 C 102.164062 238.441406 97.65625 233.929688 97.65625 228.394531 C 97.65625 219.167969 97.65625 178.476562 97.757812 151.007812 C 97.757812 149.878906 98.679688 148.957031 99.808594 148.957031 L 223.421875 148.957031 C 224.550781 148.957031 225.472656 149.878906 225.472656 151.007812 L 225.472656 187.496094 C 225.472656 190.160156 221.371094 190.160156 221.371094 187.496094 L 221.371094 153.054688 L 101.855469 153.054688 C 101.753906 180.425781 101.753906 219.476562 101.753906 228.394531 C 101.753906 231.675781 104.417969 234.339844 107.699219 234.339844 L 171.660156 234.339844 C 174.425781 234.339844 174.425781 238.441406 171.660156 238.441406 Z M 171.660156 238.441406 " fill-opacity="1" fill-rule="evenodd"/></g><path fill="#ee4962" d="M 169.097656 230.957031 L 107.699219 230.957031 C 106.265625 230.957031 105.136719 229.828125 105.136719 228.394531 L 105.136719 158.386719 C 105.136719 157.257812 106.058594 156.335938 107.1875 156.335938 L 215.941406 156.335938 C 217.066406 156.335938 217.992188 157.257812 217.992188 158.386719 L 217.992188 187.496094 C 217.992188 190.160156 213.890625 190.160156 213.890625 187.496094 L 213.890625 160.4375 L 109.238281 160.4375 C 109.238281 182.578125 109.238281 204.71875 109.238281 226.855469 L 168.890625 226.855469 C 171.863281 226.753906 171.761719 230.957031 169.097656 230.957031 Z M 169.097656 230.957031 " fill-opacity="1" fill-rule="evenodd"/><g clip-path="url(#bca4fc2d52)"><path fill="#ee4962" d="M 223.421875 153.054688 C 222.296875 153.054688 221.371094 152.132812 221.371094 151.007812 L 221.371094 143.011719 C 221.371094 140.550781 219.527344 138.605469 217.273438 138.605469 L 161.308594 138.605469 C 160.691406 138.605469 160.078125 138.398438 159.667969 137.886719 L 151.058594 126.714844 L 108.007812 126.714844 C 104.625 126.714844 101.855469 129.585938 101.855469 133.171875 L 101.855469 151.007812 C 101.855469 153.671875 97.757812 153.671875 97.757812 151.007812 L 97.757812 133.171875 C 97.757812 127.328125 102.371094 122.613281 108.007812 122.613281 L 152.082031 122.613281 C 152.699219 122.613281 153.3125 122.921875 153.722656 123.433594 L 162.332031 134.503906 L 217.273438 134.503906 C 221.78125 134.503906 225.472656 138.296875 225.472656 143.011719 L 225.472656 151.007812 C 225.472656 152.132812 224.550781 153.054688 223.421875 153.054688 Z M 223.421875 153.054688 " fill-opacity="1" fill-rule="evenodd"/></g><path fill="#ee4962" d="M 113.441406 143.113281 C 105.648438 143.113281 105.648438 131.328125 113.441406 131.328125 C 121.230469 131.328125 121.230469 143.113281 113.441406 143.113281 Z M 113.441406 135.425781 C 111.082031 135.425781 111.082031 139.015625 113.441406 139.015625 C 115.796875 139.015625 115.796875 135.425781 113.441406 135.425781 Z M 113.441406 135.425781 " fill-opacity="1" fill-rule="evenodd"/><path fill="#ee4962" d="M 128.816406 143.113281 C 121.023438 143.113281 121.023438 131.328125 128.816406 131.328125 C 136.605469 131.328125 136.605469 143.113281 128.816406 143.113281 Z M 128.816406 135.425781 C 126.457031 135.425781 126.457031 139.015625 128.816406 139.015625 C 131.171875 139.015625 131.171875 135.425781 128.816406 135.425781 Z M 128.816406 135.425781 " fill-opacity="1" fill-rule="evenodd"/><path fill="#ee4962" d="M 144.292969 143.113281 C 136.503906 143.113281 136.503906 131.328125 144.292969 131.328125 C 152.082031 131.328125 152.082031 143.113281 144.292969 143.113281 Z M 144.292969 135.425781 C 141.832031 135.425781 141.832031 139.015625 144.292969 139.015625 C 146.648438 139.015625 146.648438 135.425781 144.292969 135.425781 Z M 144.292969 135.425781 " fill-opacity="1" fill-rule="evenodd"/></svg>