<svg xmlns="http://www.w3.org/2000/svg" xmlns:xlink="http://www.w3.org/1999/xlink" width="1366" zoomAndPan="magnify" viewBox="0 0 1024.5 576" height="768" preserveAspectRatio="xMidYMid meet" version="1.0"><defs><clipPath id="99fc979b36"><path d="M 0 396.742188 L 1018 396.742188 L 1018 473.351562 L 0 473.351562 Z M 0 396.742188 " clip-rule="nonzero"/></clipPath><clipPath id="1da16773ed"><path d="M 0 0.140625 L 1024 0.140625 L 1024 419 L 0 419 Z M 0 0.140625 " clip-rule="nonzero"/></clipPath><clipPath id="75db9df9a8"><path d="M 0 0.140625 L 1024 0.140625 L 1024 422.238281 L 0 422.238281 Z M 0 0.140625 " clip-rule="nonzero"/></clipPath></defs><g clip-path="url(#99fc979b36)"><path fill="#d0c3f1" d="M 1017.933594 452.96875 C 963.160156 453.515625 962.34375 473.3125 906.027344 473.3125 C 848.929688 473.3125 848.929688 452.941406 791.828125 452.941406 C 734.726562 452.941406 734.726562 473.3125 677.628906 473.3125 C 620.53125 473.3125 620.53125 452.941406 563.433594 452.941406 C 506.335938 452.941406 506.335938 473.3125 449.238281 473.3125 C 392.136719 473.3125 392.136719 452.941406 335.039062 452.941406 C 277.941406 452.941406 277.941406 473.3125 220.851562 473.3125 C 163.746094 473.3125 163.746094 452.941406 106.644531 452.941406 C 49.546875 452.941406 49.546875 473.3125 -7.542969 473.3125 L -7.542969 396.710938 L 1017.933594 396.710938 L 1017.933594 452.96875 " fill-opacity="1" fill-rule="nonzero"/></g><g clip-path="url(#1da16773ed)"><path fill="#d0c3f1" d="M 1035.730469 418.925781 L -10.925781 418.925781 L -10.925781 -627.730469 L 1035.730469 -627.730469 Z M 1035.730469 418.925781 " fill-opacity="1" fill-rule="nonzero"/></g><g clip-path="url(#75db9df9a8)"><path fill="#d0c3f1" d="M 1039.042969 422.238281 L 1039.042969 -631.042969 L -14.238281 -631.042969 L -14.238281 422.238281 Z M -7.613281 -624.417969 L 1032.417969 -624.417969 L 1032.417969 415.613281 L -7.613281 415.613281 Z M -7.613281 -624.417969 " fill-opacity="1" fill-rule="nonzero"/></g></svg>