<svg xmlns="http://www.w3.org/2000/svg" xmlns:xlink="http://www.w3.org/1999/xlink" width="75" zoomAndPan="magnify" viewBox="0 0 56.25 19.5" height="26" preserveAspectRatio="xMidYMid meet" version="1.0"><defs><g/><clipPath id="8eea4807cc"><path d="M 3 3 L 54.65625 3 L 54.65625 18.441406 L 3 18.441406 Z M 3 3 " clip-rule="nonzero"/></clipPath><clipPath id="0f92609100"><path d="M 0.335938 0 L 18 0 L 18 7 L 0.335938 7 Z M 0.335938 0 " clip-rule="nonzero"/></clipPath><clipPath id="52e7cc7764"><path d="M 4.1875 3.429688 L 12.449219 3.429688 L 12.449219 11.691406 L 4.1875 11.691406 Z M 4.1875 3.429688 " clip-rule="nonzero"/></clipPath></defs><g clip-path="url(#8eea4807cc)"><path fill="#0b6380" d="M 53.355469 18.550781 L 5.21875 18.550781 C 4.472656 18.550781 3.859375 17.9375 3.859375 17.191406 L 3.859375 5.152344 C 3.859375 4.402344 4.472656 3.792969 5.21875 3.792969 L 53.355469 3.792969 C 54.101562 3.792969 54.714844 4.402344 54.714844 5.152344 L 54.714844 17.1875 C 54.714844 17.9375 54.101562 18.550781 53.355469 18.550781 Z M 53.355469 18.550781 " fill-opacity="1" fill-rule="nonzero"/></g><path fill="#ffffff" d="M 51.238281 16.152344 L 3.101562 16.152344 C 2.351562 16.152344 1.742188 15.542969 1.742188 14.792969 L 1.742188 2.757812 C 1.742188 2.011719 2.351562 1.398438 3.101562 1.398438 L 51.234375 1.398438 C 51.980469 1.398438 52.59375 2.011719 52.59375 2.757812 L 52.59375 14.792969 C 52.597656 15.542969 51.984375 16.152344 51.238281 16.152344 Z M 51.238281 16.152344 " fill-opacity="1" fill-rule="nonzero"/><path fill="#4a94ab" d="M 51.132812 16.449219 L 3.203125 16.449219 C 2.234375 16.449219 1.449219 15.660156 1.449219 14.695312 L 1.449219 2.863281 C 1.449219 1.894531 2.238281 1.109375 3.203125 1.109375 L 51.132812 1.109375 C 52.101562 1.109375 52.886719 1.894531 52.886719 2.863281 L 52.886719 14.695312 C 52.886719 15.660156 52.101562 16.449219 51.132812 16.449219 Z M 3.203125 1.691406 C 2.558594 1.691406 2.035156 2.214844 2.035156 2.859375 L 2.035156 14.691406 C 2.035156 15.335938 2.558594 15.859375 3.203125 15.859375 L 51.132812 15.859375 C 51.777344 15.859375 52.304688 15.335938 52.304688 14.691406 L 52.304688 2.863281 C 52.304688 2.21875 51.777344 1.691406 51.132812 1.691406 Z M 3.203125 1.691406 " fill-opacity="1" fill-rule="nonzero"/><g clip-path="url(#0f92609100)"><path fill="#4a94ab" d="M 0.632812 6.554688 C 0.472656 6.554688 0.335938 6.421875 0.335938 6.261719 L 0.335938 1.757812 C 0.335938 0.789062 1.125 0.00390625 2.089844 0.00390625 L 17.019531 0.00390625 C 17.179688 0.00390625 17.3125 0.132812 17.3125 0.296875 C 17.3125 0.457031 17.183594 0.589844 17.019531 0.589844 L 2.089844 0.589844 C 1.445312 0.589844 0.921875 1.117188 0.921875 1.761719 L 0.921875 6.261719 C 0.921875 6.421875 0.792969 6.554688 0.632812 6.554688 Z M 0.632812 6.554688 " fill-opacity="1" fill-rule="nonzero"/></g><g clip-path="url(#52e7cc7764)"><path fill="#0b6380" d="M 8.320312 11.691406 C 10.59375 11.691406 12.449219 9.835938 12.449219 7.5625 C 12.449219 5.285156 10.59375 3.429688 8.320312 3.429688 C 6.042969 3.429688 4.1875 5.285156 4.1875 7.5625 C 4.1875 9.835938 6.042969 11.691406 8.320312 11.691406 " fill-opacity="1" fill-rule="evenodd"/></g><path fill="#fffffe" d="M 6.164062 6.195312 L 10.496094 6.195312 L 8.371094 7.644531 L 6.144531 6.195312 Z M 10.578125 6.394531 L 8.429688 7.859375 L 8.371094 7.898438 L 8.3125 7.859375 L 6.058594 6.390625 L 6.058594 8.925781 L 10.578125 8.925781 L 10.578125 6.394531 " fill-opacity="1" fill-rule="nonzero"/><g fill="#737373" fill-opacity="1"><g transform="translate(16.633273, 5.738135)"><g><path d="M 0.953125 0.03125 C 0.796875 0.03125 0.65625 0 0.53125 -0.0625 C 0.40625 -0.132812 0.304688 -0.238281 0.234375 -0.375 C 0.171875 -0.507812 0.140625 -0.675781 0.140625 -0.875 C 0.140625 -1.082031 0.171875 -1.253906 0.234375 -1.390625 C 0.304688 -1.523438 0.40625 -1.625 0.53125 -1.6875 C 0.65625 -1.75 0.796875 -1.78125 0.953125 -1.78125 C 1.117188 -1.78125 1.265625 -1.75 1.390625 -1.6875 C 1.515625 -1.625 1.609375 -1.523438 1.671875 -1.390625 C 1.742188 -1.253906 1.78125 -1.082031 1.78125 -0.875 C 1.78125 -0.675781 1.742188 -0.507812 1.671875 -0.375 C 1.609375 -0.238281 1.515625 -0.132812 1.390625 -0.0625 C 1.265625 0 1.117188 0.03125 0.953125 0.03125 Z M 0.953125 -0.28125 C 1.109375 -0.28125 1.222656 -0.328125 1.296875 -0.421875 C 1.378906 -0.515625 1.421875 -0.664062 1.421875 -0.875 C 1.421875 -1.09375 1.378906 -1.25 1.296875 -1.34375 C 1.222656 -1.4375 1.109375 -1.484375 0.953125 -1.484375 C 0.804688 -1.484375 0.691406 -1.4375 0.609375 -1.34375 C 0.535156 -1.25 0.5 -1.09375 0.5 -0.875 C 0.5 -0.664062 0.535156 -0.515625 0.609375 -0.421875 C 0.691406 -0.328125 0.804688 -0.28125 0.953125 -0.28125 Z M 0.953125 -0.28125 "/></g></g></g><g fill="#737373" fill-opacity="1"><g transform="translate(18.556266, 5.738135)"><g><path d="M 0.5625 0 L 0.234375 0 L 0.234375 -1.765625 L 0.625 -1.765625 L 1.328125 -0.625 L 1.359375 -0.625 L 1.359375 -1.765625 L 1.703125 -1.765625 L 1.703125 0 L 1.34375 0 L 0.59375 -1.21875 L 0.5625 -1.203125 Z M 0.5625 0 "/></g></g></g><g fill="#737373" fill-opacity="1"><g transform="translate(20.491331, 5.738135)"><g><path d="M 0.578125 -1.765625 L 0.578125 -0.296875 L 1.375 -0.296875 L 1.375 0 L 0.234375 0 L 0.234375 -1.765625 Z M 0.578125 -1.765625 "/></g></g></g><g fill="#737373" fill-opacity="1"><g transform="translate(21.920598, 5.738135)"><g><path d="M 0.578125 0 L 0.234375 0 L 0.234375 -1.765625 L 0.578125 -1.765625 Z M 0.578125 0 "/></g></g></g><g fill="#737373" fill-opacity="1"><g transform="translate(22.729389, 5.738135)"><g><path d="M 0.5625 0 L 0.234375 0 L 0.234375 -1.765625 L 0.625 -1.765625 L 1.328125 -0.625 L 1.359375 -0.625 L 1.359375 -1.765625 L 1.703125 -1.765625 L 1.703125 0 L 1.34375 0 L 0.59375 -1.21875 L 0.5625 -1.203125 Z M 0.5625 0 "/></g></g></g><g fill="#737373" fill-opacity="1"><g transform="translate(24.664454, 5.738135)"><g><path d="M 0.578125 -0.78125 L 0.578125 -0.296875 L 1.421875 -0.296875 L 1.421875 0 L 0.234375 0 L 0.234375 -1.765625 L 1.40625 -1.765625 L 1.40625 -1.46875 L 0.578125 -1.46875 L 0.578125 -1.0625 L 1.296875 -1.0625 L 1.296875 -0.78125 Z M 0.578125 -0.78125 "/></g></g></g><g fill="#737373" fill-opacity="1"><g transform="translate(26.181844, 5.738135)"><g/></g></g><g fill="#737373" fill-opacity="1"><g transform="translate(26.7649, 5.738135)"><g><path d="M 0.78125 0.03125 C 0.65625 0.03125 0.546875 0.015625 0.453125 -0.015625 C 0.359375 -0.046875 0.28125 -0.0859375 0.21875 -0.140625 C 0.15625 -0.191406 0.109375 -0.242188 0.078125 -0.296875 L 0.265625 -0.53125 L 0.296875 -0.53125 C 0.347656 -0.457031 0.414062 -0.394531 0.5 -0.34375 C 0.582031 -0.300781 0.675781 -0.28125 0.78125 -0.28125 C 0.875 -0.28125 0.941406 -0.296875 0.984375 -0.328125 C 1.035156 -0.367188 1.0625 -0.425781 1.0625 -0.5 C 1.0625 -0.539062 1.050781 -0.570312 1.03125 -0.59375 C 1.019531 -0.625 0.992188 -0.648438 0.953125 -0.671875 C 0.921875 -0.691406 0.878906 -0.710938 0.828125 -0.734375 L 0.59375 -0.78125 C 0.4375 -0.8125 0.316406 -0.867188 0.234375 -0.953125 C 0.160156 -1.035156 0.125 -1.144531 0.125 -1.28125 C 0.125 -1.382812 0.148438 -1.472656 0.203125 -1.546875 C 0.253906 -1.617188 0.328125 -1.675781 0.421875 -1.71875 C 0.515625 -1.757812 0.628906 -1.78125 0.765625 -1.78125 C 0.898438 -1.78125 1.015625 -1.765625 1.109375 -1.734375 C 1.203125 -1.703125 1.285156 -1.644531 1.359375 -1.5625 L 1.1875 -1.328125 L 1.15625 -1.328125 C 1.101562 -1.378906 1.039062 -1.414062 0.96875 -1.4375 C 0.90625 -1.46875 0.835938 -1.484375 0.765625 -1.484375 C 0.660156 -1.484375 0.582031 -1.46875 0.53125 -1.4375 C 0.488281 -1.40625 0.46875 -1.359375 0.46875 -1.296875 C 0.46875 -1.242188 0.484375 -1.203125 0.515625 -1.171875 C 0.546875 -1.140625 0.609375 -1.113281 0.703125 -1.09375 L 0.9375 -1.046875 C 1.101562 -1.003906 1.222656 -0.941406 1.296875 -0.859375 C 1.378906 -0.773438 1.421875 -0.660156 1.421875 -0.515625 C 1.421875 -0.410156 1.394531 -0.316406 1.34375 -0.234375 C 1.300781 -0.148438 1.226562 -0.0820312 1.125 -0.03125 C 1.03125 0.0078125 0.914062 0.03125 0.78125 0.03125 Z M 0.78125 0.03125 "/></g></g></g><g fill="#737373" fill-opacity="1"><g transform="translate(28.281082, 5.738135)"><g><path d="M 0.9375 0.03125 C 0.6875 0.03125 0.503906 -0.0234375 0.390625 -0.140625 C 0.273438 -0.265625 0.21875 -0.4375 0.21875 -0.65625 L 0.21875 -1.765625 L 0.5625 -1.765625 L 0.5625 -0.65625 C 0.5625 -0.53125 0.59375 -0.4375 0.65625 -0.375 C 0.71875 -0.3125 0.8125 -0.28125 0.9375 -0.28125 C 1.1875 -0.28125 1.3125 -0.40625 1.3125 -0.65625 L 1.3125 -1.765625 L 1.65625 -1.765625 L 1.65625 -0.65625 C 1.65625 -0.4375 1.59375 -0.265625 1.46875 -0.140625 C 1.351562 -0.0234375 1.175781 0.03125 0.9375 0.03125 Z M 0.9375 0.03125 "/></g></g></g><g fill="#737373" fill-opacity="1"><g transform="translate(30.152166, 5.738135)"><g><path d="M 0.90625 -1.765625 C 1.03125 -1.765625 1.140625 -1.738281 1.234375 -1.6875 C 1.328125 -1.644531 1.394531 -1.582031 1.4375 -1.5 C 1.476562 -1.414062 1.5 -1.316406 1.5 -1.203125 C 1.5 -1.097656 1.476562 -1.003906 1.4375 -0.921875 C 1.394531 -0.835938 1.328125 -0.769531 1.234375 -0.71875 C 1.140625 -0.675781 1.03125 -0.65625 0.90625 -0.65625 L 0.578125 -0.65625 L 0.578125 0 L 0.234375 0 L 0.234375 -1.765625 Z M 0.859375 -0.9375 C 1.054688 -0.9375 1.15625 -1.023438 1.15625 -1.203125 C 1.15625 -1.390625 1.054688 -1.484375 0.859375 -1.484375 L 0.578125 -1.484375 L 0.578125 -0.9375 Z M 0.859375 -0.9375 "/></g></g></g><g fill="#737373" fill-opacity="1"><g transform="translate(31.76492, 5.738135)"><g><path d="M 0.90625 -1.765625 C 1.03125 -1.765625 1.140625 -1.738281 1.234375 -1.6875 C 1.328125 -1.644531 1.394531 -1.582031 1.4375 -1.5 C 1.476562 -1.414062 1.5 -1.316406 1.5 -1.203125 C 1.5 -1.097656 1.476562 -1.003906 1.4375 -0.921875 C 1.394531 -0.835938 1.328125 -0.769531 1.234375 -0.71875 C 1.140625 -0.675781 1.03125 -0.65625 0.90625 -0.65625 L 0.578125 -0.65625 L 0.578125 0 L 0.234375 0 L 0.234375 -1.765625 Z M 0.859375 -0.9375 C 1.054688 -0.9375 1.15625 -1.023438 1.15625 -1.203125 C 1.15625 -1.390625 1.054688 -1.484375 0.859375 -1.484375 L 0.578125 -1.484375 L 0.578125 -0.9375 Z M 0.859375 -0.9375 "/></g></g></g><g fill="#737373" fill-opacity="1"><g transform="translate(33.377674, 5.738135)"><g><path d="M 0.953125 0.03125 C 0.796875 0.03125 0.65625 0 0.53125 -0.0625 C 0.40625 -0.132812 0.304688 -0.238281 0.234375 -0.375 C 0.171875 -0.507812 0.140625 -0.675781 0.140625 -0.875 C 0.140625 -1.082031 0.171875 -1.253906 0.234375 -1.390625 C 0.304688 -1.523438 0.40625 -1.625 0.53125 -1.6875 C 0.65625 -1.75 0.796875 -1.78125 0.953125 -1.78125 C 1.117188 -1.78125 1.265625 -1.75 1.390625 -1.6875 C 1.515625 -1.625 1.609375 -1.523438 1.671875 -1.390625 C 1.742188 -1.253906 1.78125 -1.082031 1.78125 -0.875 C 1.78125 -0.675781 1.742188 -0.507812 1.671875 -0.375 C 1.609375 -0.238281 1.515625 -0.132812 1.390625 -0.0625 C 1.265625 0 1.117188 0.03125 0.953125 0.03125 Z M 0.953125 -0.28125 C 1.109375 -0.28125 1.222656 -0.328125 1.296875 -0.421875 C 1.378906 -0.515625 1.421875 -0.664062 1.421875 -0.875 C 1.421875 -1.09375 1.378906 -1.25 1.296875 -1.34375 C 1.222656 -1.4375 1.109375 -1.484375 0.953125 -1.484375 C 0.804688 -1.484375 0.691406 -1.4375 0.609375 -1.34375 C 0.535156 -1.25 0.5 -1.09375 0.5 -0.875 C 0.5 -0.664062 0.535156 -0.515625 0.609375 -0.421875 C 0.691406 -0.328125 0.804688 -0.28125 0.953125 -0.28125 Z M 0.953125 -0.28125 "/></g></g></g><g fill="#737373" fill-opacity="1"><g transform="translate(35.300667, 5.738135)"><g><path d="M 0.234375 0 L 0.234375 -1.765625 L 0.9375 -1.765625 C 1.113281 -1.765625 1.25 -1.722656 1.34375 -1.640625 C 1.4375 -1.554688 1.484375 -1.4375 1.484375 -1.28125 C 1.484375 -1.175781 1.457031 -1.085938 1.40625 -1.015625 C 1.351562 -0.953125 1.273438 -0.90625 1.171875 -0.875 L 1.171875 -0.84375 C 1.222656 -0.820312 1.265625 -0.785156 1.296875 -0.734375 C 1.328125 -0.691406 1.359375 -0.625 1.390625 -0.53125 L 1.578125 0 L 1.21875 0 L 1.046875 -0.53125 C 1.023438 -0.582031 1.003906 -0.617188 0.984375 -0.640625 C 0.960938 -0.671875 0.929688 -0.691406 0.890625 -0.703125 C 0.859375 -0.722656 0.816406 -0.734375 0.765625 -0.734375 L 0.578125 -0.734375 L 0.578125 0 Z M 0.890625 -1.015625 C 1.054688 -1.015625 1.140625 -1.09375 1.140625 -1.25 C 1.140625 -1.40625 1.054688 -1.484375 0.890625 -1.484375 L 0.578125 -1.484375 L 0.578125 -1.015625 Z M 0.890625 -1.015625 "/></g></g></g><g fill="#737373" fill-opacity="1"><g transform="translate(36.950844, 5.738135)"><g><path d="M 1.40625 -1.765625 L 1.40625 -1.46875 L 0.90625 -1.46875 L 0.90625 0 L 0.5625 0 L 0.5625 -1.46875 L 0.046875 -1.46875 L 0.046875 -1.765625 Z M 1.40625 -1.765625 "/></g></g></g><g fill="#4a94ab" fill-opacity="1"><g transform="translate(15.05165, 10.331264)"><g><path d="M 0.734375 0.03125 C 0.628906 0.03125 0.53125 0.0195312 0.4375 0 C 0.351562 -0.03125 0.28125 -0.0664062 0.21875 -0.109375 C 0.15625 -0.148438 0.109375 -0.203125 0.078125 -0.265625 L 0.296875 -0.5 L 0.328125 -0.5 C 0.378906 -0.425781 0.4375 -0.375 0.5 -0.34375 C 0.570312 -0.3125 0.65625 -0.296875 0.75 -0.296875 C 0.820312 -0.296875 0.878906 -0.304688 0.921875 -0.328125 C 0.960938 -0.359375 0.984375 -0.398438 0.984375 -0.453125 C 0.984375 -0.492188 0.96875 -0.523438 0.9375 -0.546875 C 0.90625 -0.578125 0.859375 -0.597656 0.796875 -0.609375 L 0.59375 -0.671875 C 0.4375 -0.703125 0.320312 -0.753906 0.25 -0.828125 C 0.175781 -0.910156 0.140625 -1.007812 0.140625 -1.125 C 0.140625 -1.226562 0.160156 -1.316406 0.203125 -1.390625 C 0.253906 -1.460938 0.328125 -1.515625 0.421875 -1.546875 C 0.515625 -1.585938 0.625 -1.609375 0.75 -1.609375 C 0.882812 -1.609375 1 -1.585938 1.09375 -1.546875 C 1.1875 -1.503906 1.257812 -1.453125 1.3125 -1.390625 L 1.109375 -1.15625 L 1.078125 -1.15625 C 1.035156 -1.207031 0.984375 -1.242188 0.921875 -1.265625 C 0.867188 -1.285156 0.8125 -1.296875 0.75 -1.296875 C 0.582031 -1.296875 0.5 -1.25 0.5 -1.15625 C 0.5 -1.113281 0.515625 -1.078125 0.546875 -1.046875 C 0.578125 -1.023438 0.628906 -1.003906 0.703125 -0.984375 L 0.90625 -0.953125 C 1.0625 -0.910156 1.175781 -0.851562 1.25 -0.78125 C 1.320312 -0.707031 1.359375 -0.601562 1.359375 -0.46875 C 1.359375 -0.375 1.332031 -0.285156 1.28125 -0.203125 C 1.238281 -0.128906 1.171875 -0.0703125 1.078125 -0.03125 C 0.984375 0.0078125 0.867188 0.03125 0.734375 0.03125 Z M 0.734375 0.03125 "/></g></g></g><g fill="#4a94ab" fill-opacity="1"><g transform="translate(16.512199, 10.331264)"><g><path d="M 0.71875 0.03125 C 0.539062 0.03125 0.410156 -0.015625 0.328125 -0.109375 C 0.242188 -0.210938 0.203125 -0.351562 0.203125 -0.53125 L 0.203125 -1.578125 L 0.59375 -1.578125 L 0.59375 -0.578125 C 0.59375 -0.484375 0.613281 -0.414062 0.65625 -0.375 C 0.695312 -0.332031 0.765625 -0.3125 0.859375 -0.3125 C 0.960938 -0.3125 1.046875 -0.34375 1.109375 -0.40625 C 1.171875 -0.476562 1.203125 -0.59375 1.203125 -0.75 L 1.203125 -1.578125 L 1.609375 -1.578125 L 1.609375 0 L 1.21875 0 L 1.21875 -0.234375 L 1.1875 -0.234375 C 1.132812 -0.148438 1.070312 -0.0820312 1 -0.03125 C 0.925781 0.0078125 0.832031 0.03125 0.71875 0.03125 Z M 0.71875 0.03125 "/></g></g></g><g fill="#4a94ab" fill-opacity="1"><g transform="translate(18.344707, 10.331264)"><g><path d="M 0.234375 0.640625 L 0.234375 -1.578125 L 0.625 -1.578125 L 0.625 -1.375 L 0.65625 -1.375 C 0.695312 -1.445312 0.757812 -1.503906 0.84375 -1.546875 C 0.925781 -1.585938 1.019531 -1.609375 1.125 -1.609375 C 1.25 -1.609375 1.359375 -1.578125 1.453125 -1.515625 C 1.546875 -1.460938 1.617188 -1.375 1.671875 -1.25 C 1.722656 -1.125 1.75 -0.972656 1.75 -0.796875 C 1.75 -0.609375 1.722656 -0.453125 1.671875 -0.328125 C 1.617188 -0.210938 1.539062 -0.125 1.4375 -0.0625 C 1.332031 0 1.21875 0.03125 1.09375 0.03125 C 0.988281 0.03125 0.898438 0.015625 0.828125 -0.015625 C 0.765625 -0.046875 0.707031 -0.0976562 0.65625 -0.171875 L 0.625 -0.171875 L 0.625 0.640625 Z M 0.984375 -0.3125 C 1.097656 -0.3125 1.1875 -0.347656 1.25 -0.421875 C 1.3125 -0.503906 1.34375 -0.628906 1.34375 -0.796875 C 1.34375 -0.960938 1.3125 -1.082031 1.25 -1.15625 C 1.1875 -1.238281 1.097656 -1.28125 0.984375 -1.28125 C 0.867188 -1.28125 0.78125 -1.238281 0.71875 -1.15625 C 0.65625 -1.070312 0.625 -0.953125 0.625 -0.796875 C 0.625 -0.628906 0.65625 -0.503906 0.71875 -0.421875 C 0.78125 -0.347656 0.867188 -0.3125 0.984375 -0.3125 Z M 0.984375 -0.3125 "/></g></g></g><g fill="#4a94ab" fill-opacity="1"><g transform="translate(20.241841, 10.331264)"><g><path d="M 0.234375 0.640625 L 0.234375 -1.578125 L 0.625 -1.578125 L 0.625 -1.375 L 0.65625 -1.375 C 0.695312 -1.445312 0.757812 -1.503906 0.84375 -1.546875 C 0.925781 -1.585938 1.019531 -1.609375 1.125 -1.609375 C 1.25 -1.609375 1.359375 -1.578125 1.453125 -1.515625 C 1.546875 -1.460938 1.617188 -1.375 1.671875 -1.25 C 1.722656 -1.125 1.75 -0.972656 1.75 -0.796875 C 1.75 -0.609375 1.722656 -0.453125 1.671875 -0.328125 C 1.617188 -0.210938 1.539062 -0.125 1.4375 -0.0625 C 1.332031 0 1.21875 0.03125 1.09375 0.03125 C 0.988281 0.03125 0.898438 0.015625 0.828125 -0.015625 C 0.765625 -0.046875 0.707031 -0.0976562 0.65625 -0.171875 L 0.625 -0.171875 L 0.625 0.640625 Z M 0.984375 -0.3125 C 1.097656 -0.3125 1.1875 -0.347656 1.25 -0.421875 C 1.3125 -0.503906 1.34375 -0.628906 1.34375 -0.796875 C 1.34375 -0.960938 1.3125 -1.082031 1.25 -1.15625 C 1.1875 -1.238281 1.097656 -1.28125 0.984375 -1.28125 C 0.867188 -1.28125 0.78125 -1.238281 0.71875 -1.15625 C 0.65625 -1.070312 0.625 -0.953125 0.625 -0.796875 C 0.625 -0.628906 0.65625 -0.503906 0.71875 -0.421875 C 0.78125 -0.347656 0.867188 -0.3125 0.984375 -0.3125 Z M 0.984375 -0.3125 "/></g></g></g><g fill="#4a94ab" fill-opacity="1"><g transform="translate(22.138976, 10.331264)"><g><path d="M 0.921875 0.03125 C 0.765625 0.03125 0.625 0 0.5 -0.0625 C 0.382812 -0.125 0.296875 -0.21875 0.234375 -0.34375 C 0.171875 -0.46875 0.140625 -0.617188 0.140625 -0.796875 C 0.140625 -0.960938 0.171875 -1.109375 0.234375 -1.234375 C 0.296875 -1.359375 0.382812 -1.453125 0.5 -1.515625 C 0.625 -1.578125 0.765625 -1.609375 0.921875 -1.609375 C 1.078125 -1.609375 1.210938 -1.578125 1.328125 -1.515625 C 1.441406 -1.453125 1.53125 -1.359375 1.59375 -1.234375 C 1.664062 -1.109375 1.703125 -0.960938 1.703125 -0.796875 C 1.703125 -0.617188 1.664062 -0.46875 1.59375 -0.34375 C 1.53125 -0.21875 1.441406 -0.125 1.328125 -0.0625 C 1.210938 0 1.078125 0.03125 0.921875 0.03125 Z M 0.921875 -0.3125 C 1.160156 -0.3125 1.28125 -0.472656 1.28125 -0.796875 C 1.28125 -0.960938 1.25 -1.082031 1.1875 -1.15625 C 1.125 -1.238281 1.035156 -1.28125 0.921875 -1.28125 C 0.671875 -1.28125 0.546875 -1.117188 0.546875 -0.796875 C 0.546875 -0.472656 0.671875 -0.3125 0.921875 -0.3125 Z M 0.921875 -0.3125 "/></g></g></g><g fill="#4a94ab" fill-opacity="1"><g transform="translate(23.9801, 10.331264)"><g><path d="M 0.234375 0 L 0.234375 -1.578125 L 0.609375 -1.578125 L 0.609375 -1.34375 L 0.640625 -1.34375 C 0.679688 -1.425781 0.734375 -1.488281 0.796875 -1.53125 C 0.859375 -1.570312 0.929688 -1.59375 1.015625 -1.59375 C 1.109375 -1.59375 1.175781 -1.578125 1.21875 -1.546875 L 1.15625 -1.203125 L 1.125 -1.203125 C 1.101562 -1.210938 1.078125 -1.21875 1.046875 -1.21875 C 1.023438 -1.226562 1 -1.234375 0.96875 -1.234375 C 0.851562 -1.234375 0.765625 -1.191406 0.703125 -1.109375 C 0.648438 -1.035156 0.625 -0.910156 0.625 -0.734375 L 0.625 0 Z M 0.234375 0 "/></g></g></g><g fill="#4a94ab" fill-opacity="1"><g transform="translate(25.222358, 10.331264)"><g><path d="M 1.09375 -0.375 L 1.1875 -0.078125 C 1.144531 -0.046875 1.09375 -0.0195312 1.03125 0 C 0.96875 0.0195312 0.894531 0.03125 0.8125 0.03125 C 0.644531 0.03125 0.515625 -0.015625 0.421875 -0.109375 C 0.328125 -0.203125 0.28125 -0.335938 0.28125 -0.515625 L 0.28125 -1.265625 L 0.046875 -1.265625 L 0.046875 -1.578125 L 0.28125 -1.578125 L 0.28125 -1.890625 L 0.6875 -1.953125 L 0.6875 -1.578125 L 1.140625 -1.578125 L 1.140625 -1.265625 L 0.6875 -1.265625 L 0.6875 -0.546875 C 0.6875 -0.460938 0.703125 -0.398438 0.734375 -0.359375 C 0.765625 -0.328125 0.8125 -0.3125 0.875 -0.3125 C 0.945312 -0.3125 1.007812 -0.332031 1.0625 -0.375 Z M 1.09375 -0.375 "/></g></g></g><g fill="#4a94ab" fill-opacity="1"><g transform="translate(26.453126, 10.331264)"><g><path d="M 1.421875 0.453125 C 1.160156 0.453125 0.929688 0.398438 0.734375 0.296875 C 0.546875 0.191406 0.398438 0.046875 0.296875 -0.140625 C 0.203125 -0.328125 0.15625 -0.554688 0.15625 -0.828125 C 0.15625 -1.066406 0.207031 -1.28125 0.3125 -1.46875 C 0.414062 -1.664062 0.5625 -1.816406 0.75 -1.921875 C 0.945312 -2.035156 1.175781 -2.09375 1.4375 -2.09375 C 1.695312 -2.09375 1.921875 -2.039062 2.109375 -1.9375 C 2.296875 -1.84375 2.4375 -1.707031 2.53125 -1.53125 C 2.625 -1.351562 2.671875 -1.140625 2.671875 -0.890625 C 2.671875 -0.742188 2.644531 -0.613281 2.59375 -0.5 C 2.550781 -0.394531 2.488281 -0.3125 2.40625 -0.25 C 2.320312 -0.1875 2.222656 -0.15625 2.109375 -0.15625 C 1.910156 -0.15625 1.78125 -0.226562 1.71875 -0.375 L 1.6875 -0.375 C 1.644531 -0.300781 1.59375 -0.242188 1.53125 -0.203125 C 1.46875 -0.171875 1.390625 -0.15625 1.296875 -0.15625 C 1.191406 -0.15625 1.097656 -0.175781 1.015625 -0.21875 C 0.941406 -0.269531 0.878906 -0.34375 0.828125 -0.4375 C 0.785156 -0.539062 0.765625 -0.664062 0.765625 -0.8125 C 0.765625 -0.945312 0.785156 -1.066406 0.828125 -1.171875 C 0.878906 -1.273438 0.941406 -1.347656 1.015625 -1.390625 C 1.097656 -1.441406 1.191406 -1.46875 1.296875 -1.46875 C 1.378906 -1.46875 1.445312 -1.453125 1.5 -1.421875 C 1.550781 -1.398438 1.597656 -1.359375 1.640625 -1.296875 L 1.65625 -1.296875 L 1.65625 -1.453125 L 2.015625 -1.453125 L 2.015625 -0.609375 C 2.015625 -0.492188 2.054688 -0.4375 2.140625 -0.4375 C 2.203125 -0.4375 2.253906 -0.472656 2.296875 -0.546875 C 2.335938 -0.617188 2.359375 -0.734375 2.359375 -0.890625 C 2.359375 -1.179688 2.28125 -1.40625 2.125 -1.5625 C 1.976562 -1.71875 1.75 -1.796875 1.4375 -1.796875 C 1.25 -1.796875 1.082031 -1.753906 0.9375 -1.671875 C 0.800781 -1.597656 0.691406 -1.488281 0.609375 -1.34375 C 0.535156 -1.195312 0.5 -1.023438 0.5 -0.828125 C 0.5 -0.503906 0.578125 -0.257812 0.734375 -0.09375 C 0.890625 0.0625 1.117188 0.140625 1.421875 0.140625 C 1.515625 0.140625 1.601562 0.128906 1.6875 0.109375 C 1.769531 0.0976562 1.84375 0.0703125 1.90625 0.03125 L 1.9375 0.03125 L 2.03125 0.296875 C 2 0.316406 1.945312 0.335938 1.875 0.359375 C 1.8125 0.390625 1.738281 0.410156 1.65625 0.421875 C 1.582031 0.441406 1.503906 0.453125 1.421875 0.453125 Z M 1.40625 -0.453125 C 1.476562 -0.453125 1.535156 -0.476562 1.578125 -0.53125 C 1.628906 -0.59375 1.65625 -0.6875 1.65625 -0.8125 C 1.65625 -0.9375 1.628906 -1.023438 1.578125 -1.078125 C 1.535156 -1.140625 1.476562 -1.171875 1.40625 -1.171875 C 1.320312 -1.171875 1.253906 -1.140625 1.203125 -1.078125 C 1.160156 -1.023438 1.140625 -0.9375 1.140625 -0.8125 C 1.140625 -0.6875 1.160156 -0.59375 1.203125 -0.53125 C 1.253906 -0.476562 1.320312 -0.453125 1.40625 -0.453125 Z M 1.40625 -0.453125 "/></g></g></g><g fill="#4a94ab" fill-opacity="1"><g transform="translate(29.269386, 10.331264)"><g><path d="M 0.234375 0 L 0.234375 -1.578125 L 0.609375 -1.578125 L 0.609375 -1.34375 L 0.640625 -1.34375 C 0.734375 -1.519531 0.894531 -1.609375 1.125 -1.609375 C 1.300781 -1.609375 1.429688 -1.554688 1.515625 -1.453125 C 1.609375 -1.359375 1.65625 -1.21875 1.65625 -1.03125 L 1.65625 0 L 1.25 0 L 1.25 -0.984375 C 1.25 -1.085938 1.226562 -1.160156 1.1875 -1.203125 C 1.144531 -1.253906 1.078125 -1.28125 0.984375 -1.28125 C 0.867188 -1.28125 0.78125 -1.242188 0.71875 -1.171875 C 0.65625 -1.097656 0.625 -0.976562 0.625 -0.8125 L 0.625 0 Z M 0.234375 0 "/></g></g></g><g fill="#4a94ab" fill-opacity="1"><g transform="translate(31.124872, 10.331264)"><g><path d="M 1.5625 -0.703125 L 0.546875 -0.703125 C 0.554688 -0.566406 0.59375 -0.46875 0.65625 -0.40625 C 0.726562 -0.34375 0.820312 -0.3125 0.9375 -0.3125 C 1.03125 -0.3125 1.101562 -0.328125 1.15625 -0.359375 C 1.21875 -0.390625 1.265625 -0.441406 1.296875 -0.515625 L 1.328125 -0.515625 L 1.59375 -0.34375 C 1.539062 -0.226562 1.460938 -0.132812 1.359375 -0.0625 C 1.253906 0 1.113281 0.03125 0.9375 0.03125 C 0.769531 0.03125 0.625 0 0.5 -0.0625 C 0.382812 -0.125 0.296875 -0.21875 0.234375 -0.34375 C 0.171875 -0.46875 0.140625 -0.617188 0.140625 -0.796875 C 0.140625 -0.972656 0.171875 -1.125 0.234375 -1.25 C 0.304688 -1.375 0.398438 -1.460938 0.515625 -1.515625 C 0.628906 -1.578125 0.757812 -1.609375 0.90625 -1.609375 C 1.132812 -1.609375 1.304688 -1.546875 1.421875 -1.421875 C 1.546875 -1.304688 1.609375 -1.132812 1.609375 -0.90625 C 1.609375 -0.820312 1.601562 -0.757812 1.59375 -0.71875 Z M 1.21875 -0.953125 C 1.21875 -1.078125 1.191406 -1.164062 1.140625 -1.21875 C 1.085938 -1.269531 1.007812 -1.296875 0.90625 -1.296875 C 0.707031 -1.296875 0.59375 -1.179688 0.5625 -0.953125 Z M 1.21875 -0.953125 "/></g></g></g><g fill="#4a94ab" fill-opacity="1"><g transform="translate(32.846798, 10.331264)"><g><path d="M 1.5625 -0.703125 L 0.546875 -0.703125 C 0.554688 -0.566406 0.59375 -0.46875 0.65625 -0.40625 C 0.726562 -0.34375 0.820312 -0.3125 0.9375 -0.3125 C 1.03125 -0.3125 1.101562 -0.328125 1.15625 -0.359375 C 1.21875 -0.390625 1.265625 -0.441406 1.296875 -0.515625 L 1.328125 -0.515625 L 1.59375 -0.34375 C 1.539062 -0.226562 1.460938 -0.132812 1.359375 -0.0625 C 1.253906 0 1.113281 0.03125 0.9375 0.03125 C 0.769531 0.03125 0.625 0 0.5 -0.0625 C 0.382812 -0.125 0.296875 -0.21875 0.234375 -0.34375 C 0.171875 -0.46875 0.140625 -0.617188 0.140625 -0.796875 C 0.140625 -0.972656 0.171875 -1.125 0.234375 -1.25 C 0.304688 -1.375 0.398438 -1.460938 0.515625 -1.515625 C 0.628906 -1.578125 0.757812 -1.609375 0.90625 -1.609375 C 1.132812 -1.609375 1.304688 -1.546875 1.421875 -1.421875 C 1.546875 -1.304688 1.609375 -1.132812 1.609375 -0.90625 C 1.609375 -0.820312 1.601562 -0.757812 1.59375 -0.71875 Z M 1.21875 -0.953125 C 1.21875 -1.078125 1.191406 -1.164062 1.140625 -1.21875 C 1.085938 -1.269531 1.007812 -1.296875 0.90625 -1.296875 C 0.707031 -1.296875 0.59375 -1.179688 0.5625 -0.953125 Z M 1.21875 -0.953125 "/></g></g></g><g fill="#4a94ab" fill-opacity="1"><g transform="translate(34.568724, 10.331264)"><g><path d="M 1.09375 0 L 0.609375 0 L 0.03125 -1.578125 L 0.453125 -1.578125 L 0.84375 -0.453125 L 0.875 -0.453125 L 1.265625 -1.578125 L 1.671875 -1.578125 Z M 1.09375 0 "/></g></g></g><g fill="#4a94ab" fill-opacity="1"><g transform="translate(36.27198, 10.331264)"><g><path d="M 0.921875 0.03125 C 0.765625 0.03125 0.628906 0 0.515625 -0.0625 C 0.398438 -0.125 0.304688 -0.21875 0.234375 -0.34375 C 0.171875 -0.46875 0.140625 -0.617188 0.140625 -0.796875 C 0.140625 -0.960938 0.171875 -1.109375 0.234375 -1.234375 C 0.304688 -1.359375 0.398438 -1.453125 0.515625 -1.515625 C 0.628906 -1.578125 0.765625 -1.609375 0.921875 -1.609375 C 1.253906 -1.609375 1.46875 -1.488281 1.5625 -1.25 L 1.28125 -1.046875 L 1.25 -1.046875 C 1.21875 -1.128906 1.175781 -1.1875 1.125 -1.21875 C 1.070312 -1.257812 1.003906 -1.28125 0.921875 -1.28125 C 0.804688 -1.28125 0.710938 -1.238281 0.640625 -1.15625 C 0.578125 -1.070312 0.546875 -0.953125 0.546875 -0.796875 C 0.546875 -0.628906 0.578125 -0.503906 0.640625 -0.421875 C 0.710938 -0.347656 0.804688 -0.3125 0.921875 -0.3125 C 1.003906 -0.3125 1.078125 -0.332031 1.140625 -0.375 C 1.203125 -0.425781 1.242188 -0.492188 1.265625 -0.578125 L 1.296875 -0.578125 L 1.578125 -0.421875 C 1.535156 -0.285156 1.460938 -0.175781 1.359375 -0.09375 C 1.253906 -0.0078125 1.109375 0.03125 0.921875 0.03125 Z M 0.921875 0.03125 "/></g></g></g><g fill="#4a94ab" fill-opacity="1"><g transform="translate(37.904866, 10.331264)"><g><path d="M 0.921875 0.03125 C 0.765625 0.03125 0.625 0 0.5 -0.0625 C 0.382812 -0.125 0.296875 -0.21875 0.234375 -0.34375 C 0.171875 -0.46875 0.140625 -0.617188 0.140625 -0.796875 C 0.140625 -0.960938 0.171875 -1.109375 0.234375 -1.234375 C 0.296875 -1.359375 0.382812 -1.453125 0.5 -1.515625 C 0.625 -1.578125 0.765625 -1.609375 0.921875 -1.609375 C 1.078125 -1.609375 1.210938 -1.578125 1.328125 -1.515625 C 1.441406 -1.453125 1.53125 -1.359375 1.59375 -1.234375 C 1.664062 -1.109375 1.703125 -0.960938 1.703125 -0.796875 C 1.703125 -0.617188 1.664062 -0.46875 1.59375 -0.34375 C 1.53125 -0.21875 1.441406 -0.125 1.328125 -0.0625 C 1.210938 0 1.078125 0.03125 0.921875 0.03125 Z M 0.921875 -0.3125 C 1.160156 -0.3125 1.28125 -0.472656 1.28125 -0.796875 C 1.28125 -0.960938 1.25 -1.082031 1.1875 -1.15625 C 1.125 -1.238281 1.035156 -1.28125 0.921875 -1.28125 C 0.671875 -1.28125 0.546875 -1.117188 0.546875 -0.796875 C 0.546875 -0.472656 0.671875 -0.3125 0.921875 -0.3125 Z M 0.921875 -0.3125 "/></g></g></g><g fill="#4a94ab" fill-opacity="1"><g transform="translate(39.74599, 10.331264)"><g><path d="M 0.78125 0.03125 C 0.65625 0.03125 0.546875 0 0.453125 -0.0625 C 0.359375 -0.125 0.28125 -0.210938 0.21875 -0.328125 C 0.164062 -0.453125 0.140625 -0.609375 0.140625 -0.796875 C 0.140625 -0.972656 0.164062 -1.125 0.21875 -1.25 C 0.28125 -1.375 0.359375 -1.460938 0.453125 -1.515625 C 0.554688 -1.578125 0.671875 -1.609375 0.796875 -1.609375 C 0.898438 -1.609375 0.988281 -1.59375 1.0625 -1.5625 C 1.132812 -1.53125 1.191406 -1.476562 1.234375 -1.40625 L 1.265625 -1.40625 L 1.265625 -2.21875 L 1.671875 -2.21875 L 1.671875 0 L 1.265625 0 L 1.265625 -0.203125 L 1.234375 -0.203125 C 1.191406 -0.128906 1.128906 -0.0703125 1.046875 -0.03125 C 0.972656 0.0078125 0.882812 0.03125 0.78125 0.03125 Z M 0.90625 -0.3125 C 1.019531 -0.3125 1.109375 -0.347656 1.171875 -0.421875 C 1.242188 -0.503906 1.28125 -0.628906 1.28125 -0.796875 C 1.28125 -0.953125 1.242188 -1.070312 1.171875 -1.15625 C 1.109375 -1.238281 1.019531 -1.28125 0.90625 -1.28125 C 0.789062 -1.28125 0.703125 -1.238281 0.640625 -1.15625 C 0.578125 -1.082031 0.546875 -0.960938 0.546875 -0.796875 C 0.546875 -0.628906 0.578125 -0.503906 0.640625 -0.421875 C 0.703125 -0.347656 0.789062 -0.3125 0.90625 -0.3125 Z M 0.90625 -0.3125 "/></g></g></g><g fill="#4a94ab" fill-opacity="1"><g transform="translate(41.644559, 10.331264)"><g><path d="M 1.5625 -0.703125 L 0.546875 -0.703125 C 0.554688 -0.566406 0.59375 -0.46875 0.65625 -0.40625 C 0.726562 -0.34375 0.820312 -0.3125 0.9375 -0.3125 C 1.03125 -0.3125 1.101562 -0.328125 1.15625 -0.359375 C 1.21875 -0.390625 1.265625 -0.441406 1.296875 -0.515625 L 1.328125 -0.515625 L 1.59375 -0.34375 C 1.539062 -0.226562 1.460938 -0.132812 1.359375 -0.0625 C 1.253906 0 1.113281 0.03125 0.9375 0.03125 C 0.769531 0.03125 0.625 0 0.5 -0.0625 C 0.382812 -0.125 0.296875 -0.21875 0.234375 -0.34375 C 0.171875 -0.46875 0.140625 -0.617188 0.140625 -0.796875 C 0.140625 -0.972656 0.171875 -1.125 0.234375 -1.25 C 0.304688 -1.375 0.398438 -1.460938 0.515625 -1.515625 C 0.628906 -1.578125 0.757812 -1.609375 0.90625 -1.609375 C 1.132812 -1.609375 1.304688 -1.546875 1.421875 -1.421875 C 1.546875 -1.304688 1.609375 -1.132812 1.609375 -0.90625 C 1.609375 -0.820312 1.601562 -0.757812 1.59375 -0.71875 Z M 1.21875 -0.953125 C 1.21875 -1.078125 1.191406 -1.164062 1.140625 -1.21875 C 1.085938 -1.269531 1.007812 -1.296875 0.90625 -1.296875 C 0.707031 -1.296875 0.59375 -1.179688 0.5625 -0.953125 Z M 1.21875 -0.953125 "/></g></g></g><g fill="#4a94ab" fill-opacity="1"><g transform="translate(43.366485, 10.331264)"><g><path d="M 0.40625 0.015625 C 0.351562 0.015625 0.304688 0.00390625 0.265625 -0.015625 C 0.234375 -0.0351562 0.207031 -0.0625 0.1875 -0.09375 C 0.164062 -0.132812 0.15625 -0.179688 0.15625 -0.234375 C 0.15625 -0.273438 0.164062 -0.3125 0.1875 -0.34375 C 0.207031 -0.382812 0.234375 -0.414062 0.265625 -0.4375 C 0.304688 -0.457031 0.351562 -0.46875 0.40625 -0.46875 C 0.457031 -0.46875 0.5 -0.457031 0.53125 -0.4375 C 0.570312 -0.414062 0.601562 -0.382812 0.625 -0.34375 C 0.644531 -0.3125 0.65625 -0.273438 0.65625 -0.234375 C 0.65625 -0.160156 0.628906 -0.0976562 0.578125 -0.046875 C 0.535156 -0.00390625 0.476562 0.015625 0.40625 0.015625 Z M 0.40625 0.015625 "/></g></g></g><g fill="#4a94ab" fill-opacity="1"><g transform="translate(44.177903, 10.331264)"><g><path d="M 0.921875 0.03125 C 0.765625 0.03125 0.628906 0 0.515625 -0.0625 C 0.398438 -0.125 0.304688 -0.21875 0.234375 -0.34375 C 0.171875 -0.46875 0.140625 -0.617188 0.140625 -0.796875 C 0.140625 -0.960938 0.171875 -1.109375 0.234375 -1.234375 C 0.304688 -1.359375 0.398438 -1.453125 0.515625 -1.515625 C 0.628906 -1.578125 0.765625 -1.609375 0.921875 -1.609375 C 1.253906 -1.609375 1.46875 -1.488281 1.5625 -1.25 L 1.28125 -1.046875 L 1.25 -1.046875 C 1.21875 -1.128906 1.175781 -1.1875 1.125 -1.21875 C 1.070312 -1.257812 1.003906 -1.28125 0.921875 -1.28125 C 0.804688 -1.28125 0.710938 -1.238281 0.640625 -1.15625 C 0.578125 -1.070312 0.546875 -0.953125 0.546875 -0.796875 C 0.546875 -0.628906 0.578125 -0.503906 0.640625 -0.421875 C 0.710938 -0.347656 0.804688 -0.3125 0.921875 -0.3125 C 1.003906 -0.3125 1.078125 -0.332031 1.140625 -0.375 C 1.203125 -0.425781 1.242188 -0.492188 1.265625 -0.578125 L 1.296875 -0.578125 L 1.578125 -0.421875 C 1.535156 -0.285156 1.460938 -0.175781 1.359375 -0.09375 C 1.253906 -0.0078125 1.109375 0.03125 0.921875 0.03125 Z M 0.921875 0.03125 "/></g></g></g><g fill="#4a94ab" fill-opacity="1"><g transform="translate(45.81079, 10.331264)"><g><path d="M 0.921875 0.03125 C 0.765625 0.03125 0.625 0 0.5 -0.0625 C 0.382812 -0.125 0.296875 -0.21875 0.234375 -0.34375 C 0.171875 -0.46875 0.140625 -0.617188 0.140625 -0.796875 C 0.140625 -0.960938 0.171875 -1.109375 0.234375 -1.234375 C 0.296875 -1.359375 0.382812 -1.453125 0.5 -1.515625 C 0.625 -1.578125 0.765625 -1.609375 0.921875 -1.609375 C 1.078125 -1.609375 1.210938 -1.578125 1.328125 -1.515625 C 1.441406 -1.453125 1.53125 -1.359375 1.59375 -1.234375 C 1.664062 -1.109375 1.703125 -0.960938 1.703125 -0.796875 C 1.703125 -0.617188 1.664062 -0.46875 1.59375 -0.34375 C 1.53125 -0.21875 1.441406 -0.125 1.328125 -0.0625 C 1.210938 0 1.078125 0.03125 0.921875 0.03125 Z M 0.921875 -0.3125 C 1.160156 -0.3125 1.28125 -0.472656 1.28125 -0.796875 C 1.28125 -0.960938 1.25 -1.082031 1.1875 -1.15625 C 1.125 -1.238281 1.035156 -1.28125 0.921875 -1.28125 C 0.671875 -1.28125 0.546875 -1.117188 0.546875 -0.796875 C 0.546875 -0.472656 0.671875 -0.3125 0.921875 -0.3125 Z M 0.921875 -0.3125 "/></g></g></g><g fill="#4a94ab" fill-opacity="1"><g transform="translate(47.651913, 10.331264)"><g><path d="M 0.234375 0 L 0.234375 -1.578125 L 0.609375 -1.578125 L 0.609375 -1.375 L 0.640625 -1.359375 C 0.691406 -1.441406 0.75 -1.503906 0.8125 -1.546875 C 0.882812 -1.585938 0.976562 -1.609375 1.09375 -1.609375 C 1.207031 -1.609375 1.300781 -1.582031 1.375 -1.53125 C 1.445312 -1.488281 1.5 -1.421875 1.53125 -1.328125 L 1.5625 -1.328125 C 1.613281 -1.421875 1.675781 -1.488281 1.75 -1.53125 C 1.832031 -1.582031 1.929688 -1.609375 2.046875 -1.609375 C 2.367188 -1.609375 2.53125 -1.425781 2.53125 -1.0625 L 2.53125 0 L 2.140625 0 L 2.140625 -1.015625 C 2.140625 -1.109375 2.117188 -1.175781 2.078125 -1.21875 C 2.046875 -1.257812 1.988281 -1.28125 1.90625 -1.28125 C 1.6875 -1.28125 1.578125 -1.132812 1.578125 -0.84375 L 1.578125 0 L 1.1875 0 L 1.1875 -1.015625 C 1.1875 -1.109375 1.164062 -1.175781 1.125 -1.21875 C 1.09375 -1.257812 1.035156 -1.28125 0.953125 -1.28125 C 0.847656 -1.28125 0.765625 -1.242188 0.703125 -1.171875 C 0.648438 -1.109375 0.625 -1 0.625 -0.84375 L 0.625 0 Z M 0.234375 0 "/></g></g></g></svg>