<svg xmlns="http://www.w3.org/2000/svg" xmlns:xlink="http://www.w3.org/1999/xlink" width="380" zoomAndPan="magnify" viewBox="0 0 285 142.499996" height="190" preserveAspectRatio="xMidYMid meet" version="1.0"><defs><g/><clipPath id="1b8d80e947"><path d="M 100 61 L 181.070312 61 L 181.070312 84.753906 L 100 84.753906 Z M 100 61 " clip-rule="nonzero"/></clipPath><clipPath id="2acf962c7e"><path d="M 95.179688 55.589844 L 123 55.589844 L 123 66 L 95.179688 66 Z M 95.179688 55.589844 " clip-rule="nonzero"/></clipPath><clipPath id="d36558b8a5"><path d="M 101.265625 61.015625 L 114.332031 61.015625 L 114.332031 74.082031 L 101.265625 74.082031 Z M 101.265625 61.015625 " clip-rule="nonzero"/></clipPath></defs><g clip-path="url(#1b8d80e947)"><path fill="#0b6380" d="M 179.011719 84.921875 L 102.902344 84.921875 C 101.71875 84.921875 100.75 83.953125 100.75 82.773438 L 100.75 63.734375 C 100.75 62.554688 101.71875 61.585938 102.902344 61.585938 L 179.011719 61.585938 C 180.195312 61.585938 181.164062 62.554688 181.164062 63.734375 L 181.164062 82.769531 C 181.164062 83.953125 180.195312 84.921875 179.011719 84.921875 Z M 179.011719 84.921875 " fill-opacity="1" fill-rule="nonzero"/></g><path fill="#ffffff" d="M 175.664062 81.132812 L 99.546875 81.132812 C 98.363281 81.132812 97.398438 80.167969 97.398438 78.984375 L 97.398438 59.953125 C 97.398438 58.769531 98.363281 57.804688 99.546875 57.804688 L 175.660156 57.804688 C 176.84375 57.804688 177.808594 58.769531 177.808594 59.953125 L 177.808594 78.984375 C 177.8125 80.167969 176.847656 81.132812 175.664062 81.132812 Z M 175.664062 81.132812 " fill-opacity="1" fill-rule="nonzero"/><path fill="#4a94ab" d="M 175.5 81.597656 L 99.710938 81.597656 C 98.179688 81.597656 96.9375 80.351562 96.9375 78.824219 L 96.9375 60.117188 C 96.9375 58.585938 98.183594 57.34375 99.710938 57.34375 L 175.5 57.34375 C 177.03125 57.34375 178.273438 58.589844 178.273438 60.117188 L 178.273438 78.824219 C 178.273438 80.351562 177.03125 81.597656 175.5 81.597656 Z M 99.710938 58.261719 C 98.691406 58.261719 97.863281 59.09375 97.863281 60.113281 L 97.863281 78.820312 C 97.863281 79.839844 98.691406 80.671875 99.710938 80.671875 L 175.5 80.671875 C 176.519531 80.671875 177.351562 79.839844 177.351562 78.820312 L 177.351562 60.117188 C 177.351562 59.097656 176.519531 58.265625 175.5 58.265625 L 99.710938 58.265625 Z M 99.710938 58.261719 " fill-opacity="1" fill-rule="nonzero"/><g clip-path="url(#2acf962c7e)"><path fill="#4a94ab" d="M 95.644531 65.953125 C 95.390625 65.953125 95.179688 65.746094 95.179688 65.488281 L 95.179688 58.371094 C 95.179688 56.839844 96.425781 55.597656 97.953125 55.597656 L 121.558594 55.597656 C 121.8125 55.597656 122.023438 55.804688 122.023438 56.0625 C 122.023438 56.316406 121.816406 56.527344 121.558594 56.527344 L 97.953125 56.527344 C 96.933594 56.527344 96.105469 57.355469 96.105469 58.375 L 96.105469 65.496094 C 96.105469 65.746094 95.898438 65.953125 95.644531 65.953125 Z M 95.644531 65.953125 " fill-opacity="1" fill-rule="nonzero"/></g><g clip-path="url(#d36558b8a5)"><path fill="#0b6380" d="M 107.800781 74.082031 C 111.398438 74.082031 114.332031 71.144531 114.332031 67.546875 C 114.332031 63.949219 111.398438 61.015625 107.800781 61.015625 C 104.203125 61.015625 101.265625 63.949219 101.265625 67.546875 C 101.265625 71.144531 104.203125 74.082031 107.800781 74.082031 " fill-opacity="1" fill-rule="evenodd"/></g><path fill="#fffffe" d="M 104.394531 65.386719 L 111.242188 65.386719 L 107.878906 67.679688 L 104.363281 65.386719 Z M 111.371094 65.703125 L 107.976562 68.015625 L 107.886719 68.078125 L 107.792969 68.019531 L 104.226562 65.695312 L 104.226562 69.707031 L 111.371094 69.707031 L 111.371094 65.703125 " fill-opacity="1" fill-rule="nonzero"/><g fill="#737373" fill-opacity="1"><g transform="translate(120.947097, 64.664587)"><g><path d="M 1.515625 0.046875 C 1.265625 0.046875 1.039062 -0.00390625 0.84375 -0.109375 C 0.644531 -0.210938 0.488281 -0.375 0.375 -0.59375 C 0.269531 -0.8125 0.21875 -1.078125 0.21875 -1.390625 C 0.21875 -1.710938 0.269531 -1.976562 0.375 -2.1875 C 0.488281 -2.40625 0.644531 -2.566406 0.84375 -2.671875 C 1.039062 -2.773438 1.265625 -2.828125 1.515625 -2.828125 C 1.773438 -2.828125 2 -2.773438 2.1875 -2.671875 C 2.382812 -2.566406 2.535156 -2.40625 2.640625 -2.1875 C 2.753906 -1.976562 2.8125 -1.710938 2.8125 -1.390625 C 2.8125 -1.078125 2.753906 -0.8125 2.640625 -0.59375 C 2.535156 -0.375 2.382812 -0.210938 2.1875 -0.109375 C 2 -0.00390625 1.773438 0.046875 1.515625 0.046875 Z M 1.515625 -0.4375 C 1.753906 -0.4375 1.9375 -0.507812 2.0625 -0.65625 C 2.1875 -0.8125 2.25 -1.054688 2.25 -1.390625 C 2.25 -1.722656 2.1875 -1.96875 2.0625 -2.125 C 1.9375 -2.28125 1.753906 -2.359375 1.515625 -2.359375 C 1.273438 -2.359375 1.09375 -2.28125 0.96875 -2.125 C 0.84375 -1.96875 0.78125 -1.722656 0.78125 -1.390625 C 0.78125 -1.054688 0.84375 -0.8125 0.96875 -0.65625 C 1.09375 -0.507812 1.273438 -0.4375 1.515625 -0.4375 Z M 1.515625 -0.4375 "/></g></g></g><g fill="#737373" fill-opacity="1"><g transform="translate(123.987836, 64.664587)"><g><path d="M 0.890625 0 L 0.359375 0 L 0.359375 -2.78125 L 1 -2.78125 L 2.109375 -0.984375 L 2.15625 -1 L 2.15625 -2.78125 L 2.6875 -2.78125 L 2.6875 0 L 2.125 0 L 0.9375 -1.921875 L 0.890625 -1.90625 Z M 0.890625 0 "/></g></g></g><g fill="#737373" fill-opacity="1"><g transform="translate(127.047663, 64.664587)"><g><path d="M 0.90625 -2.78125 L 0.90625 -0.46875 L 2.171875 -0.46875 L 2.171875 0 L 0.359375 0 L 0.359375 -2.78125 Z M 0.90625 -2.78125 "/></g></g></g><g fill="#737373" fill-opacity="1"><g transform="translate(129.307695, 64.664587)"><g><path d="M 0.90625 0 L 0.359375 0 L 0.359375 -2.78125 L 0.90625 -2.78125 Z M 0.90625 0 "/></g></g></g><g fill="#737373" fill-opacity="1"><g transform="translate(130.586599, 64.664587)"><g><path d="M 0.890625 0 L 0.359375 0 L 0.359375 -2.78125 L 1 -2.78125 L 2.109375 -0.984375 L 2.15625 -1 L 2.15625 -2.78125 L 2.6875 -2.78125 L 2.6875 0 L 2.125 0 L 0.9375 -1.921875 L 0.890625 -1.90625 Z M 0.890625 0 "/></g></g></g><g fill="#737373" fill-opacity="1"><g transform="translate(133.646426, 64.664587)"><g><path d="M 0.90625 -1.21875 L 0.90625 -0.46875 L 2.25 -0.46875 L 2.25 0 L 0.359375 0 L 0.359375 -2.78125 L 2.21875 -2.78125 L 2.21875 -2.328125 L 0.90625 -2.328125 L 0.90625 -1.671875 L 2.046875 -1.671875 L 2.046875 -1.21875 Z M 0.90625 -1.21875 "/></g></g></g><g fill="#737373" fill-opacity="1"><g transform="translate(136.045805, 64.664587)"><g/></g></g><g fill="#737373" fill-opacity="1"><g transform="translate(136.967763, 64.664587)"><g><path d="M 1.234375 0.046875 C 1.046875 0.046875 0.875 0.0195312 0.71875 -0.03125 C 0.570312 -0.0820312 0.445312 -0.144531 0.34375 -0.21875 C 0.238281 -0.289062 0.160156 -0.375 0.109375 -0.46875 L 0.421875 -0.84375 L 0.46875 -0.84375 C 0.550781 -0.71875 0.65625 -0.617188 0.78125 -0.546875 C 0.914062 -0.472656 1.066406 -0.4375 1.234375 -0.4375 C 1.378906 -0.4375 1.488281 -0.46875 1.5625 -0.53125 C 1.644531 -0.59375 1.6875 -0.675781 1.6875 -0.78125 C 1.6875 -0.851562 1.671875 -0.910156 1.640625 -0.953125 C 1.617188 -0.992188 1.578125 -1.03125 1.515625 -1.0625 C 1.460938 -1.09375 1.390625 -1.125 1.296875 -1.15625 L 0.9375 -1.234375 C 0.6875 -1.285156 0.5 -1.378906 0.375 -1.515625 C 0.257812 -1.648438 0.203125 -1.820312 0.203125 -2.03125 C 0.203125 -2.1875 0.238281 -2.320312 0.3125 -2.4375 C 0.394531 -2.5625 0.507812 -2.65625 0.65625 -2.71875 C 0.8125 -2.789062 0.992188 -2.828125 1.203125 -2.828125 C 1.410156 -2.828125 1.59375 -2.796875 1.75 -2.734375 C 1.90625 -2.679688 2.035156 -2.597656 2.140625 -2.484375 L 1.875 -2.109375 L 1.8125 -2.109375 C 1.738281 -2.191406 1.648438 -2.253906 1.546875 -2.296875 C 1.441406 -2.335938 1.328125 -2.359375 1.203125 -2.359375 C 1.046875 -2.359375 0.925781 -2.332031 0.84375 -2.28125 C 0.769531 -2.226562 0.734375 -2.15625 0.734375 -2.0625 C 0.734375 -1.96875 0.757812 -1.894531 0.8125 -1.84375 C 0.875 -1.789062 0.972656 -1.75 1.109375 -1.71875 L 1.46875 -1.640625 C 1.738281 -1.585938 1.9375 -1.492188 2.0625 -1.359375 C 2.1875 -1.222656 2.25 -1.046875 2.25 -0.828125 C 2.25 -0.648438 2.207031 -0.492188 2.125 -0.359375 C 2.050781 -0.234375 1.9375 -0.132812 1.78125 -0.0625 C 1.632812 0.0078125 1.453125 0.046875 1.234375 0.046875 Z M 1.234375 0.046875 "/></g></g></g><g fill="#737373" fill-opacity="1"><g transform="translate(139.36523, 64.664587)"><g><path d="M 1.484375 0.046875 C 1.097656 0.046875 0.8125 -0.0390625 0.625 -0.21875 C 0.4375 -0.40625 0.34375 -0.679688 0.34375 -1.046875 L 0.34375 -2.78125 L 0.890625 -2.78125 L 0.890625 -1.046875 C 0.890625 -0.847656 0.9375 -0.695312 1.03125 -0.59375 C 1.125 -0.488281 1.273438 -0.4375 1.484375 -0.4375 C 1.878906 -0.4375 2.078125 -0.640625 2.078125 -1.046875 L 2.078125 -2.78125 L 2.609375 -2.78125 L 2.609375 -1.046875 C 2.609375 -0.679688 2.515625 -0.40625 2.328125 -0.21875 C 2.140625 -0.0390625 1.859375 0.046875 1.484375 0.046875 Z M 1.484375 0.046875 "/></g></g></g><g fill="#737373" fill-opacity="1"><g transform="translate(142.323888, 64.664587)"><g><path d="M 1.4375 -2.78125 C 1.632812 -2.78125 1.804688 -2.742188 1.953125 -2.671875 C 2.097656 -2.597656 2.203125 -2.492188 2.265625 -2.359375 C 2.335938 -2.234375 2.375 -2.082031 2.375 -1.90625 C 2.375 -1.738281 2.335938 -1.585938 2.265625 -1.453125 C 2.203125 -1.328125 2.097656 -1.226562 1.953125 -1.15625 C 1.804688 -1.082031 1.632812 -1.046875 1.4375 -1.046875 L 0.90625 -1.046875 L 0.90625 0 L 0.359375 0 L 0.359375 -2.78125 Z M 1.375 -1.46875 C 1.675781 -1.46875 1.828125 -1.613281 1.828125 -1.90625 C 1.828125 -2.207031 1.675781 -2.359375 1.375 -2.359375 L 0.90625 -2.359375 L 0.90625 -1.46875 Z M 1.375 -1.46875 "/></g></g></g><g fill="#737373" fill-opacity="1"><g transform="translate(144.87406, 64.664587)"><g><path d="M 1.4375 -2.78125 C 1.632812 -2.78125 1.804688 -2.742188 1.953125 -2.671875 C 2.097656 -2.597656 2.203125 -2.492188 2.265625 -2.359375 C 2.335938 -2.234375 2.375 -2.082031 2.375 -1.90625 C 2.375 -1.738281 2.335938 -1.585938 2.265625 -1.453125 C 2.203125 -1.328125 2.097656 -1.226562 1.953125 -1.15625 C 1.804688 -1.082031 1.632812 -1.046875 1.4375 -1.046875 L 0.90625 -1.046875 L 0.90625 0 L 0.359375 0 L 0.359375 -2.78125 Z M 1.375 -1.46875 C 1.675781 -1.46875 1.828125 -1.613281 1.828125 -1.90625 C 1.828125 -2.207031 1.675781 -2.359375 1.375 -2.359375 L 0.90625 -2.359375 L 0.90625 -1.46875 Z M 1.375 -1.46875 "/></g></g></g><g fill="#737373" fill-opacity="1"><g transform="translate(147.424232, 64.664587)"><g><path d="M 1.515625 0.046875 C 1.265625 0.046875 1.039062 -0.00390625 0.84375 -0.109375 C 0.644531 -0.210938 0.488281 -0.375 0.375 -0.59375 C 0.269531 -0.8125 0.21875 -1.078125 0.21875 -1.390625 C 0.21875 -1.710938 0.269531 -1.976562 0.375 -2.1875 C 0.488281 -2.40625 0.644531 -2.566406 0.84375 -2.671875 C 1.039062 -2.773438 1.265625 -2.828125 1.515625 -2.828125 C 1.773438 -2.828125 2 -2.773438 2.1875 -2.671875 C 2.382812 -2.566406 2.535156 -2.40625 2.640625 -2.1875 C 2.753906 -1.976562 2.8125 -1.710938 2.8125 -1.390625 C 2.8125 -1.078125 2.753906 -0.8125 2.640625 -0.59375 C 2.535156 -0.375 2.382812 -0.210938 2.1875 -0.109375 C 2 -0.00390625 1.773438 0.046875 1.515625 0.046875 Z M 1.515625 -0.4375 C 1.753906 -0.4375 1.9375 -0.507812 2.0625 -0.65625 C 2.1875 -0.8125 2.25 -1.054688 2.25 -1.390625 C 2.25 -1.722656 2.1875 -1.96875 2.0625 -2.125 C 1.9375 -2.28125 1.753906 -2.359375 1.515625 -2.359375 C 1.273438 -2.359375 1.09375 -2.28125 0.96875 -2.125 C 0.84375 -1.96875 0.78125 -1.722656 0.78125 -1.390625 C 0.78125 -1.054688 0.84375 -0.8125 0.96875 -0.65625 C 1.09375 -0.507812 1.273438 -0.4375 1.515625 -0.4375 Z M 1.515625 -0.4375 "/></g></g></g><g fill="#737373" fill-opacity="1"><g transform="translate(150.464971, 64.664587)"><g><path d="M 0.359375 0 L 0.359375 -2.78125 L 1.484375 -2.78125 C 1.773438 -2.78125 1.992188 -2.710938 2.140625 -2.578125 C 2.285156 -2.453125 2.359375 -2.269531 2.359375 -2.03125 C 2.359375 -1.863281 2.3125 -1.726562 2.21875 -1.625 C 2.132812 -1.519531 2.007812 -1.4375 1.84375 -1.375 L 1.84375 -1.328125 C 1.925781 -1.296875 1.992188 -1.238281 2.046875 -1.15625 C 2.109375 -1.082031 2.160156 -0.972656 2.203125 -0.828125 L 2.484375 0 L 1.921875 0 L 1.640625 -0.828125 C 1.617188 -0.910156 1.585938 -0.972656 1.546875 -1.015625 C 1.515625 -1.066406 1.472656 -1.101562 1.421875 -1.125 C 1.367188 -1.144531 1.296875 -1.15625 1.203125 -1.15625 L 0.90625 -1.15625 L 0.90625 0 Z M 1.421875 -1.59375 C 1.679688 -1.59375 1.8125 -1.71875 1.8125 -1.96875 C 1.8125 -2.226562 1.679688 -2.359375 1.421875 -2.359375 L 0.90625 -2.359375 L 0.90625 -1.59375 Z M 1.421875 -1.59375 "/></g></g></g><g fill="#737373" fill-opacity="1"><g transform="translate(153.074318, 64.664587)"><g><path d="M 2.234375 -2.78125 L 2.234375 -2.328125 L 1.4375 -2.328125 L 1.4375 0 L 0.875 0 L 0.875 -2.328125 L 0.078125 -2.328125 L 0.078125 -2.78125 Z M 2.234375 -2.78125 "/></g></g></g><g fill="#4a94ab" fill-opacity="1"><g transform="translate(118.44615, 71.927489)"><g><path d="M 1.171875 0.046875 C 1.003906 0.046875 0.847656 0.0234375 0.703125 -0.015625 C 0.554688 -0.0546875 0.429688 -0.109375 0.328125 -0.171875 C 0.234375 -0.242188 0.160156 -0.328125 0.109375 -0.421875 L 0.46875 -0.796875 L 0.515625 -0.796875 C 0.597656 -0.679688 0.695312 -0.597656 0.8125 -0.546875 C 0.925781 -0.492188 1.046875 -0.46875 1.171875 -0.46875 C 1.296875 -0.46875 1.390625 -0.488281 1.453125 -0.53125 C 1.515625 -0.570312 1.546875 -0.632812 1.546875 -0.71875 C 1.546875 -0.78125 1.523438 -0.832031 1.484375 -0.875 C 1.441406 -0.914062 1.367188 -0.953125 1.265625 -0.984375 L 0.9375 -1.0625 C 0.6875 -1.113281 0.503906 -1.203125 0.390625 -1.328125 C 0.273438 -1.453125 0.21875 -1.609375 0.21875 -1.796875 C 0.21875 -1.953125 0.253906 -2.085938 0.328125 -2.203125 C 0.410156 -2.316406 0.523438 -2.40625 0.671875 -2.46875 C 0.816406 -2.53125 0.984375 -2.5625 1.171875 -2.5625 C 1.398438 -2.5625 1.585938 -2.523438 1.734375 -2.453125 C 1.890625 -2.390625 2.007812 -2.304688 2.09375 -2.203125 L 1.75 -1.828125 L 1.703125 -1.828125 C 1.628906 -1.910156 1.550781 -1.96875 1.46875 -2 C 1.382812 -2.039062 1.285156 -2.0625 1.171875 -2.0625 C 0.929688 -2.0625 0.8125 -1.984375 0.8125 -1.828125 C 0.8125 -1.765625 0.832031 -1.710938 0.875 -1.671875 C 0.914062 -1.628906 1 -1.59375 1.125 -1.5625 L 1.421875 -1.5 C 1.679688 -1.445312 1.867188 -1.359375 1.984375 -1.234375 C 2.097656 -1.117188 2.15625 -0.957031 2.15625 -0.75 C 2.15625 -0.59375 2.113281 -0.453125 2.03125 -0.328125 C 1.957031 -0.210938 1.847656 -0.117188 1.703125 -0.046875 C 1.554688 0.015625 1.378906 0.046875 1.171875 0.046875 Z M 1.171875 0.046875 "/></g></g></g><g fill="#4a94ab" fill-opacity="1"><g transform="translate(120.755649, 71.927489)"><g><path d="M 1.140625 0.046875 C 0.859375 0.046875 0.648438 -0.0234375 0.515625 -0.171875 C 0.390625 -0.328125 0.328125 -0.550781 0.328125 -0.84375 L 0.328125 -2.5 L 0.953125 -2.5 L 0.953125 -0.921875 C 0.953125 -0.773438 0.984375 -0.664062 1.046875 -0.59375 C 1.117188 -0.519531 1.222656 -0.484375 1.359375 -0.484375 C 1.535156 -0.484375 1.671875 -0.539062 1.765625 -0.65625 C 1.859375 -0.769531 1.90625 -0.953125 1.90625 -1.203125 L 1.90625 -2.5 L 2.546875 -2.5 L 2.546875 0 L 1.9375 0 L 1.9375 -0.375 L 1.890625 -0.375 C 1.804688 -0.226562 1.707031 -0.117188 1.59375 -0.046875 C 1.476562 0.015625 1.328125 0.046875 1.140625 0.046875 Z M 1.140625 0.046875 "/></g></g></g><g fill="#4a94ab" fill-opacity="1"><g transform="translate(123.653307, 71.927489)"><g><path d="M 0.359375 1.015625 L 0.359375 -2.5 L 0.984375 -2.5 L 0.984375 -2.1875 L 1.03125 -2.171875 C 1.113281 -2.296875 1.210938 -2.390625 1.328125 -2.453125 C 1.453125 -2.523438 1.597656 -2.5625 1.765625 -2.5625 C 1.972656 -2.5625 2.148438 -2.507812 2.296875 -2.40625 C 2.453125 -2.3125 2.570312 -2.164062 2.65625 -1.96875 C 2.738281 -1.78125 2.78125 -1.539062 2.78125 -1.25 C 2.78125 -0.96875 2.734375 -0.726562 2.640625 -0.53125 C 2.554688 -0.332031 2.4375 -0.1875 2.28125 -0.09375 C 2.125 0 1.941406 0.046875 1.734375 0.046875 C 1.578125 0.046875 1.441406 0.0195312 1.328125 -0.03125 C 1.210938 -0.0820312 1.113281 -0.164062 1.03125 -0.28125 L 0.984375 -0.265625 L 0.984375 1.015625 Z M 1.5625 -0.484375 C 1.75 -0.484375 1.890625 -0.546875 1.984375 -0.671875 C 2.078125 -0.796875 2.125 -0.988281 2.125 -1.25 C 2.125 -1.519531 2.078125 -1.710938 1.984375 -1.828125 C 1.890625 -1.953125 1.75 -2.015625 1.5625 -2.015625 C 1.382812 -2.015625 1.242188 -1.953125 1.140625 -1.828125 C 1.035156 -1.703125 0.984375 -1.507812 0.984375 -1.25 C 0.984375 -1 1.035156 -0.804688 1.140625 -0.671875 C 1.242188 -0.546875 1.382812 -0.484375 1.5625 -0.484375 Z M 1.5625 -0.484375 "/></g></g></g><g fill="#4a94ab" fill-opacity="1"><g transform="translate(126.653157, 71.927489)"><g><path d="M 0.359375 1.015625 L 0.359375 -2.5 L 0.984375 -2.5 L 0.984375 -2.1875 L 1.03125 -2.171875 C 1.113281 -2.296875 1.210938 -2.390625 1.328125 -2.453125 C 1.453125 -2.523438 1.597656 -2.5625 1.765625 -2.5625 C 1.972656 -2.5625 2.148438 -2.507812 2.296875 -2.40625 C 2.453125 -2.3125 2.570312 -2.164062 2.65625 -1.96875 C 2.738281 -1.78125 2.78125 -1.539062 2.78125 -1.25 C 2.78125 -0.96875 2.734375 -0.726562 2.640625 -0.53125 C 2.554688 -0.332031 2.4375 -0.1875 2.28125 -0.09375 C 2.125 0 1.941406 0.046875 1.734375 0.046875 C 1.578125 0.046875 1.441406 0.0195312 1.328125 -0.03125 C 1.210938 -0.0820312 1.113281 -0.164062 1.03125 -0.28125 L 0.984375 -0.265625 L 0.984375 1.015625 Z M 1.5625 -0.484375 C 1.75 -0.484375 1.890625 -0.546875 1.984375 -0.671875 C 2.078125 -0.796875 2.125 -0.988281 2.125 -1.25 C 2.125 -1.519531 2.078125 -1.710938 1.984375 -1.828125 C 1.890625 -1.953125 1.75 -2.015625 1.5625 -2.015625 C 1.382812 -2.015625 1.242188 -1.953125 1.140625 -1.828125 C 1.035156 -1.703125 0.984375 -1.507812 0.984375 -1.25 C 0.984375 -1 1.035156 -0.804688 1.140625 -0.671875 C 1.242188 -0.546875 1.382812 -0.484375 1.5625 -0.484375 Z M 1.5625 -0.484375 "/></g></g></g><g fill="#4a94ab" fill-opacity="1"><g transform="translate(129.653006, 71.927489)"><g><path d="M 1.453125 0.046875 C 1.210938 0.046875 1 0 0.8125 -0.09375 C 0.625 -0.195312 0.476562 -0.347656 0.375 -0.546875 C 0.269531 -0.742188 0.21875 -0.976562 0.21875 -1.25 C 0.21875 -1.53125 0.269531 -1.765625 0.375 -1.953125 C 0.476562 -2.148438 0.625 -2.300781 0.8125 -2.40625 C 1 -2.507812 1.210938 -2.5625 1.453125 -2.5625 C 1.703125 -2.5625 1.914062 -2.507812 2.09375 -2.40625 C 2.28125 -2.300781 2.425781 -2.148438 2.53125 -1.953125 C 2.632812 -1.765625 2.6875 -1.53125 2.6875 -1.25 C 2.6875 -0.976562 2.632812 -0.742188 2.53125 -0.546875 C 2.425781 -0.347656 2.28125 -0.195312 2.09375 -0.09375 C 1.914062 0 1.703125 0.046875 1.453125 0.046875 Z M 1.453125 -0.484375 C 1.847656 -0.484375 2.046875 -0.738281 2.046875 -1.25 C 2.046875 -1.519531 1.992188 -1.710938 1.890625 -1.828125 C 1.785156 -1.953125 1.640625 -2.015625 1.453125 -2.015625 C 1.066406 -2.015625 0.875 -1.757812 0.875 -1.25 C 0.875 -0.738281 1.066406 -0.484375 1.453125 -0.484375 Z M 1.453125 -0.484375 "/></g></g></g><g fill="#4a94ab" fill-opacity="1"><g transform="translate(132.56429, 71.927489)"><g><path d="M 0.359375 0 L 0.359375 -2.5 L 0.96875 -2.5 L 0.96875 -2.140625 L 1.015625 -2.125 C 1.078125 -2.257812 1.15625 -2.359375 1.25 -2.421875 C 1.351562 -2.492188 1.476562 -2.53125 1.625 -2.53125 C 1.757812 -2.53125 1.863281 -2.503906 1.9375 -2.453125 L 1.84375 -1.921875 L 1.796875 -1.90625 C 1.753906 -1.925781 1.710938 -1.9375 1.671875 -1.9375 C 1.628906 -1.945312 1.582031 -1.953125 1.53125 -1.953125 C 1.351562 -1.953125 1.21875 -1.890625 1.125 -1.765625 C 1.03125 -1.640625 0.984375 -1.441406 0.984375 -1.171875 L 0.984375 0 Z M 0.359375 0 "/></g></g></g><g fill="#4a94ab" fill-opacity="1"><g transform="translate(134.528612, 71.927489)"><g><path d="M 1.734375 -0.59375 L 1.890625 -0.125 C 1.828125 -0.0703125 1.742188 -0.03125 1.640625 0 C 1.535156 0.03125 1.414062 0.046875 1.28125 0.046875 C 1.007812 0.046875 0.800781 -0.0234375 0.65625 -0.171875 C 0.519531 -0.316406 0.453125 -0.53125 0.453125 -0.8125 L 0.453125 -2.015625 L 0.078125 -2.015625 L 0.078125 -2.515625 L 0.453125 -2.515625 L 0.453125 -3 L 1.09375 -3.09375 L 1.09375 -2.515625 L 1.796875 -2.515625 L 1.796875 -2.015625 L 1.09375 -2.015625 L 1.09375 -0.859375 C 1.09375 -0.734375 1.113281 -0.640625 1.15625 -0.578125 C 1.207031 -0.523438 1.285156 -0.5 1.390625 -0.5 C 1.503906 -0.5 1.601562 -0.53125 1.6875 -0.59375 Z M 1.734375 -0.59375 "/></g></g></g><g fill="#4a94ab" fill-opacity="1"><g transform="translate(136.474768, 71.927489)"><g><path d="M 2.25 0.71875 C 1.832031 0.71875 1.472656 0.632812 1.171875 0.46875 C 0.878906 0.3125 0.648438 0.0820312 0.484375 -0.21875 C 0.328125 -0.519531 0.25 -0.878906 0.25 -1.296875 C 0.25 -1.691406 0.328125 -2.039062 0.484375 -2.34375 C 0.648438 -2.65625 0.882812 -2.894531 1.1875 -3.0625 C 1.5 -3.238281 1.863281 -3.328125 2.28125 -3.328125 C 2.695312 -3.328125 3.050781 -3.25 3.34375 -3.09375 C 3.632812 -2.9375 3.851562 -2.710938 4 -2.421875 C 4.15625 -2.140625 4.234375 -1.804688 4.234375 -1.421875 C 4.234375 -1.179688 4.195312 -0.972656 4.125 -0.796875 C 4.0625 -0.617188 3.960938 -0.484375 3.828125 -0.390625 C 3.691406 -0.296875 3.535156 -0.25 3.359375 -0.25 C 3.035156 -0.25 2.820312 -0.363281 2.71875 -0.59375 L 2.671875 -0.59375 C 2.609375 -0.476562 2.523438 -0.390625 2.421875 -0.328125 C 2.328125 -0.273438 2.207031 -0.25 2.0625 -0.25 C 1.894531 -0.25 1.75 -0.285156 1.625 -0.359375 C 1.5 -0.441406 1.398438 -0.5625 1.328125 -0.71875 C 1.253906 -0.875 1.21875 -1.066406 1.21875 -1.296875 C 1.21875 -1.515625 1.253906 -1.703125 1.328125 -1.859375 C 1.398438 -2.015625 1.5 -2.132812 1.625 -2.21875 C 1.75 -2.300781 1.894531 -2.34375 2.0625 -2.34375 C 2.1875 -2.34375 2.289062 -2.316406 2.375 -2.265625 C 2.457031 -2.222656 2.53125 -2.15625 2.59375 -2.0625 L 2.625 -2.0625 L 2.625 -2.296875 L 3.203125 -2.296875 L 3.203125 -0.953125 C 3.203125 -0.773438 3.269531 -0.6875 3.40625 -0.6875 C 3.5 -0.6875 3.578125 -0.742188 3.640625 -0.859375 C 3.703125 -0.972656 3.734375 -1.160156 3.734375 -1.421875 C 3.734375 -1.878906 3.613281 -2.226562 3.375 -2.46875 C 3.132812 -2.71875 2.769531 -2.84375 2.28125 -2.84375 C 1.988281 -2.84375 1.726562 -2.78125 1.5 -2.65625 C 1.269531 -2.53125 1.09375 -2.347656 0.96875 -2.109375 C 0.84375 -1.878906 0.78125 -1.609375 0.78125 -1.296875 C 0.78125 -0.785156 0.90625 -0.398438 1.15625 -0.140625 C 1.414062 0.109375 1.78125 0.234375 2.25 0.234375 C 2.394531 0.234375 2.535156 0.21875 2.671875 0.1875 C 2.804688 0.15625 2.921875 0.113281 3.015625 0.0625 L 3.0625 0.0625 L 3.21875 0.46875 C 3.164062 0.507812 3.085938 0.546875 2.984375 0.578125 C 2.878906 0.617188 2.765625 0.648438 2.640625 0.671875 C 2.515625 0.703125 2.382812 0.71875 2.25 0.71875 Z M 2.21875 -0.71875 C 2.34375 -0.71875 2.441406 -0.765625 2.515625 -0.859375 C 2.585938 -0.953125 2.625 -1.097656 2.625 -1.296875 C 2.625 -1.484375 2.585938 -1.625 2.515625 -1.71875 C 2.441406 -1.8125 2.34375 -1.859375 2.21875 -1.859375 C 2.082031 -1.859375 1.976562 -1.8125 1.90625 -1.71875 C 1.84375 -1.632812 1.8125 -1.492188 1.8125 -1.296875 C 1.8125 -1.085938 1.84375 -0.9375 1.90625 -0.84375 C 1.976562 -0.757812 2.082031 -0.71875 2.21875 -0.71875 Z M 2.21875 -0.71875 "/></g></g></g><g fill="#4a94ab" fill-opacity="1"><g transform="translate(140.927988, 71.927489)"><g><path d="M 0.359375 0 L 0.359375 -2.5 L 0.96875 -2.5 L 0.96875 -2.140625 L 1.015625 -2.125 C 1.171875 -2.414062 1.421875 -2.5625 1.765625 -2.5625 C 2.054688 -2.5625 2.269531 -2.476562 2.40625 -2.3125 C 2.539062 -2.15625 2.609375 -1.925781 2.609375 -1.625 L 2.609375 0 L 1.984375 0 L 1.984375 -1.546875 C 1.984375 -1.710938 1.945312 -1.832031 1.875 -1.90625 C 1.8125 -1.988281 1.707031 -2.03125 1.5625 -2.03125 C 1.382812 -2.03125 1.242188 -1.96875 1.140625 -1.84375 C 1.035156 -1.726562 0.984375 -1.546875 0.984375 -1.296875 L 0.984375 0 Z M 0.359375 0 "/></g></g></g><g fill="#4a94ab" fill-opacity="1"><g transform="translate(143.861981, 71.927489)"><g><path d="M 2.484375 -1.109375 L 0.859375 -1.109375 C 0.878906 -0.890625 0.941406 -0.726562 1.046875 -0.625 C 1.160156 -0.53125 1.304688 -0.484375 1.484375 -0.484375 C 1.628906 -0.484375 1.742188 -0.507812 1.828125 -0.5625 C 1.921875 -0.613281 1.992188 -0.695312 2.046875 -0.8125 L 2.09375 -0.8125 L 2.515625 -0.546875 C 2.429688 -0.367188 2.304688 -0.222656 2.140625 -0.109375 C 1.984375 -0.00390625 1.765625 0.046875 1.484375 0.046875 C 1.222656 0.046875 1 0 0.8125 -0.09375 C 0.625 -0.195312 0.476562 -0.34375 0.375 -0.53125 C 0.269531 -0.726562 0.21875 -0.96875 0.21875 -1.25 C 0.21875 -1.539062 0.269531 -1.78125 0.375 -1.96875 C 0.488281 -2.164062 0.632812 -2.3125 0.8125 -2.40625 C 1 -2.507812 1.207031 -2.5625 1.4375 -2.5625 C 1.789062 -2.5625 2.0625 -2.460938 2.25 -2.265625 C 2.445312 -2.078125 2.546875 -1.804688 2.546875 -1.453125 C 2.546875 -1.316406 2.539062 -1.210938 2.53125 -1.140625 Z M 1.9375 -1.515625 C 1.925781 -1.710938 1.878906 -1.851562 1.796875 -1.9375 C 1.722656 -2.019531 1.601562 -2.0625 1.4375 -2.0625 C 1.125 -2.0625 0.9375 -1.878906 0.875 -1.515625 Z M 1.9375 -1.515625 "/></g></g></g><g fill="#4a94ab" fill-opacity="1"><g transform="translate(146.584782, 71.927489)"><g><path d="M 2.484375 -1.109375 L 0.859375 -1.109375 C 0.878906 -0.890625 0.941406 -0.726562 1.046875 -0.625 C 1.160156 -0.53125 1.304688 -0.484375 1.484375 -0.484375 C 1.628906 -0.484375 1.742188 -0.507812 1.828125 -0.5625 C 1.921875 -0.613281 1.992188 -0.695312 2.046875 -0.8125 L 2.09375 -0.8125 L 2.515625 -0.546875 C 2.429688 -0.367188 2.304688 -0.222656 2.140625 -0.109375 C 1.984375 -0.00390625 1.765625 0.046875 1.484375 0.046875 C 1.222656 0.046875 1 0 0.8125 -0.09375 C 0.625 -0.195312 0.476562 -0.34375 0.375 -0.53125 C 0.269531 -0.726562 0.21875 -0.96875 0.21875 -1.25 C 0.21875 -1.539062 0.269531 -1.78125 0.375 -1.96875 C 0.488281 -2.164062 0.632812 -2.3125 0.8125 -2.40625 C 1 -2.507812 1.207031 -2.5625 1.4375 -2.5625 C 1.789062 -2.5625 2.0625 -2.460938 2.25 -2.265625 C 2.445312 -2.078125 2.546875 -1.804688 2.546875 -1.453125 C 2.546875 -1.316406 2.539062 -1.210938 2.53125 -1.140625 Z M 1.9375 -1.515625 C 1.925781 -1.710938 1.878906 -1.851562 1.796875 -1.9375 C 1.722656 -2.019531 1.601562 -2.0625 1.4375 -2.0625 C 1.125 -2.0625 0.9375 -1.878906 0.875 -1.515625 Z M 1.9375 -1.515625 "/></g></g></g><g fill="#4a94ab" fill-opacity="1"><g transform="translate(149.307582, 71.927489)"><g><path d="M 1.71875 0 L 0.96875 0 L 0.046875 -2.5 L 0.703125 -2.5 L 1.328125 -0.71875 L 1.375 -0.71875 L 2 -2.5 L 2.65625 -2.5 Z M 1.71875 0 "/></g></g></g><g fill="#4a94ab" fill-opacity="1"><g transform="translate(152.00086, 71.927489)"><g><path d="M 1.46875 0.046875 C 1.21875 0.046875 1 0 0.8125 -0.09375 C 0.625 -0.195312 0.476562 -0.347656 0.375 -0.546875 C 0.269531 -0.742188 0.21875 -0.976562 0.21875 -1.25 C 0.21875 -1.53125 0.269531 -1.765625 0.375 -1.953125 C 0.476562 -2.148438 0.625 -2.300781 0.8125 -2.40625 C 1 -2.507812 1.210938 -2.5625 1.453125 -2.5625 C 1.984375 -2.5625 2.320312 -2.367188 2.46875 -1.984375 L 2.03125 -1.671875 L 1.984375 -1.671875 C 1.929688 -1.785156 1.863281 -1.867188 1.78125 -1.921875 C 1.695312 -1.984375 1.585938 -2.015625 1.453125 -2.015625 C 1.265625 -2.015625 1.117188 -1.953125 1.015625 -1.828125 C 0.921875 -1.703125 0.875 -1.507812 0.875 -1.25 C 0.875 -0.988281 0.925781 -0.796875 1.03125 -0.671875 C 1.132812 -0.546875 1.28125 -0.484375 1.46875 -0.484375 C 1.601562 -0.484375 1.71875 -0.519531 1.8125 -0.59375 C 1.90625 -0.664062 1.972656 -0.769531 2.015625 -0.90625 L 2.0625 -0.921875 L 2.5 -0.671875 C 2.4375 -0.460938 2.316406 -0.289062 2.140625 -0.15625 C 1.972656 -0.0195312 1.75 0.046875 1.46875 0.046875 Z M 1.46875 0.046875 "/></g></g></g><g fill="#4a94ab" fill-opacity="1"><g transform="translate(154.582866, 71.927489)"><g><path d="M 1.453125 0.046875 C 1.210938 0.046875 1 0 0.8125 -0.09375 C 0.625 -0.195312 0.476562 -0.347656 0.375 -0.546875 C 0.269531 -0.742188 0.21875 -0.976562 0.21875 -1.25 C 0.21875 -1.53125 0.269531 -1.765625 0.375 -1.953125 C 0.476562 -2.148438 0.625 -2.300781 0.8125 -2.40625 C 1 -2.507812 1.210938 -2.5625 1.453125 -2.5625 C 1.703125 -2.5625 1.914062 -2.507812 2.09375 -2.40625 C 2.28125 -2.300781 2.425781 -2.148438 2.53125 -1.953125 C 2.632812 -1.765625 2.6875 -1.53125 2.6875 -1.25 C 2.6875 -0.976562 2.632812 -0.742188 2.53125 -0.546875 C 2.425781 -0.347656 2.28125 -0.195312 2.09375 -0.09375 C 1.914062 0 1.703125 0.046875 1.453125 0.046875 Z M 1.453125 -0.484375 C 1.847656 -0.484375 2.046875 -0.738281 2.046875 -1.25 C 2.046875 -1.519531 1.992188 -1.710938 1.890625 -1.828125 C 1.785156 -1.953125 1.640625 -2.015625 1.453125 -2.015625 C 1.066406 -2.015625 0.875 -1.757812 0.875 -1.25 C 0.875 -0.738281 1.066406 -0.484375 1.453125 -0.484375 Z M 1.453125 -0.484375 "/></g></g></g><g fill="#4a94ab" fill-opacity="1"><g transform="translate(157.494149, 71.927489)"><g><path d="M 1.234375 0.046875 C 1.035156 0.046875 0.859375 0 0.703125 -0.09375 C 0.554688 -0.1875 0.4375 -0.332031 0.34375 -0.53125 C 0.257812 -0.726562 0.21875 -0.96875 0.21875 -1.25 C 0.21875 -1.539062 0.257812 -1.78125 0.34375 -1.96875 C 0.4375 -2.164062 0.5625 -2.3125 0.71875 -2.40625 C 0.882812 -2.507812 1.066406 -2.5625 1.265625 -2.5625 C 1.421875 -2.5625 1.554688 -2.53125 1.671875 -2.46875 C 1.785156 -2.414062 1.882812 -2.332031 1.96875 -2.21875 L 2.015625 -2.234375 L 2.015625 -3.515625 L 2.640625 -3.515625 L 2.640625 0 L 2.015625 0 L 2.015625 -0.328125 L 1.96875 -0.328125 C 1.894531 -0.210938 1.796875 -0.117188 1.671875 -0.046875 C 1.554688 0.015625 1.410156 0.046875 1.234375 0.046875 Z M 1.4375 -0.484375 C 1.613281 -0.484375 1.753906 -0.546875 1.859375 -0.671875 C 1.960938 -0.796875 2.015625 -0.988281 2.015625 -1.25 C 2.015625 -1.507812 1.960938 -1.703125 1.859375 -1.828125 C 1.753906 -1.953125 1.613281 -2.015625 1.4375 -2.015625 C 1.257812 -2.015625 1.117188 -1.953125 1.015625 -1.828125 C 0.921875 -1.710938 0.875 -1.519531 0.875 -1.25 C 0.875 -0.988281 0.921875 -0.796875 1.015625 -0.671875 C 1.117188 -0.546875 1.257812 -0.484375 1.4375 -0.484375 Z M 1.4375 -0.484375 "/></g></g></g><g fill="#4a94ab" fill-opacity="1"><g transform="translate(160.496266, 71.927489)"><g><path d="M 2.484375 -1.109375 L 0.859375 -1.109375 C 0.878906 -0.890625 0.941406 -0.726562 1.046875 -0.625 C 1.160156 -0.53125 1.304688 -0.484375 1.484375 -0.484375 C 1.628906 -0.484375 1.742188 -0.507812 1.828125 -0.5625 C 1.921875 -0.613281 1.992188 -0.695312 2.046875 -0.8125 L 2.09375 -0.8125 L 2.515625 -0.546875 C 2.429688 -0.367188 2.304688 -0.222656 2.140625 -0.109375 C 1.984375 -0.00390625 1.765625 0.046875 1.484375 0.046875 C 1.222656 0.046875 1 0 0.8125 -0.09375 C 0.625 -0.195312 0.476562 -0.34375 0.375 -0.53125 C 0.269531 -0.726562 0.21875 -0.96875 0.21875 -1.25 C 0.21875 -1.539062 0.269531 -1.78125 0.375 -1.96875 C 0.488281 -2.164062 0.632812 -2.3125 0.8125 -2.40625 C 1 -2.507812 1.207031 -2.5625 1.4375 -2.5625 C 1.789062 -2.5625 2.0625 -2.460938 2.25 -2.265625 C 2.445312 -2.078125 2.546875 -1.804688 2.546875 -1.453125 C 2.546875 -1.316406 2.539062 -1.210938 2.53125 -1.140625 Z M 1.9375 -1.515625 C 1.925781 -1.710938 1.878906 -1.851562 1.796875 -1.9375 C 1.722656 -2.019531 1.601562 -2.0625 1.4375 -2.0625 C 1.125 -2.0625 0.9375 -1.878906 0.875 -1.515625 Z M 1.9375 -1.515625 "/></g></g></g><g fill="#4a94ab" fill-opacity="1"><g transform="translate(163.219067, 71.927489)"><g><path d="M 0.640625 0.015625 C 0.554688 0.015625 0.484375 0 0.421875 -0.03125 C 0.367188 -0.0625 0.320312 -0.101562 0.28125 -0.15625 C 0.25 -0.21875 0.234375 -0.285156 0.234375 -0.359375 C 0.234375 -0.429688 0.25 -0.492188 0.28125 -0.546875 C 0.320312 -0.609375 0.367188 -0.65625 0.421875 -0.6875 C 0.484375 -0.71875 0.554688 -0.734375 0.640625 -0.734375 C 0.722656 -0.734375 0.796875 -0.71875 0.859375 -0.6875 C 0.921875 -0.65625 0.96875 -0.609375 1 -0.546875 C 1.03125 -0.492188 1.046875 -0.429688 1.046875 -0.359375 C 1.046875 -0.253906 1.007812 -0.164062 0.9375 -0.09375 C 0.863281 -0.0195312 0.765625 0.015625 0.640625 0.015625 Z M 0.640625 0.015625 "/></g></g></g><g fill="#4a94ab" fill-opacity="1"><g transform="translate(164.502124, 71.927489)"><g><path d="M 1.46875 0.046875 C 1.21875 0.046875 1 0 0.8125 -0.09375 C 0.625 -0.195312 0.476562 -0.347656 0.375 -0.546875 C 0.269531 -0.742188 0.21875 -0.976562 0.21875 -1.25 C 0.21875 -1.53125 0.269531 -1.765625 0.375 -1.953125 C 0.476562 -2.148438 0.625 -2.300781 0.8125 -2.40625 C 1 -2.507812 1.210938 -2.5625 1.453125 -2.5625 C 1.984375 -2.5625 2.320312 -2.367188 2.46875 -1.984375 L 2.03125 -1.671875 L 1.984375 -1.671875 C 1.929688 -1.785156 1.863281 -1.867188 1.78125 -1.921875 C 1.695312 -1.984375 1.585938 -2.015625 1.453125 -2.015625 C 1.265625 -2.015625 1.117188 -1.953125 1.015625 -1.828125 C 0.921875 -1.703125 0.875 -1.507812 0.875 -1.25 C 0.875 -0.988281 0.925781 -0.796875 1.03125 -0.671875 C 1.132812 -0.546875 1.28125 -0.484375 1.46875 -0.484375 C 1.601562 -0.484375 1.71875 -0.519531 1.8125 -0.59375 C 1.90625 -0.664062 1.972656 -0.769531 2.015625 -0.90625 L 2.0625 -0.921875 L 2.5 -0.671875 C 2.4375 -0.460938 2.316406 -0.289062 2.140625 -0.15625 C 1.972656 -0.0195312 1.75 0.046875 1.46875 0.046875 Z M 1.46875 0.046875 "/></g></g></g><g fill="#4a94ab" fill-opacity="1"><g transform="translate(167.084132, 71.927489)"><g><path d="M 1.453125 0.046875 C 1.210938 0.046875 1 0 0.8125 -0.09375 C 0.625 -0.195312 0.476562 -0.347656 0.375 -0.546875 C 0.269531 -0.742188 0.21875 -0.976562 0.21875 -1.25 C 0.21875 -1.53125 0.269531 -1.765625 0.375 -1.953125 C 0.476562 -2.148438 0.625 -2.300781 0.8125 -2.40625 C 1 -2.507812 1.210938 -2.5625 1.453125 -2.5625 C 1.703125 -2.5625 1.914062 -2.507812 2.09375 -2.40625 C 2.28125 -2.300781 2.425781 -2.148438 2.53125 -1.953125 C 2.632812 -1.765625 2.6875 -1.53125 2.6875 -1.25 C 2.6875 -0.976562 2.632812 -0.742188 2.53125 -0.546875 C 2.425781 -0.347656 2.28125 -0.195312 2.09375 -0.09375 C 1.914062 0 1.703125 0.046875 1.453125 0.046875 Z M 1.453125 -0.484375 C 1.847656 -0.484375 2.046875 -0.738281 2.046875 -1.25 C 2.046875 -1.519531 1.992188 -1.710938 1.890625 -1.828125 C 1.785156 -1.953125 1.640625 -2.015625 1.453125 -2.015625 C 1.066406 -2.015625 0.875 -1.757812 0.875 -1.25 C 0.875 -0.738281 1.066406 -0.484375 1.453125 -0.484375 Z M 1.453125 -0.484375 "/></g></g></g><g fill="#4a94ab" fill-opacity="1"><g transform="translate(169.995413, 71.927489)"><g><path d="M 0.359375 0 L 0.359375 -2.5 L 0.96875 -2.5 L 0.96875 -2.171875 L 1.015625 -2.15625 C 1.097656 -2.289062 1.191406 -2.390625 1.296875 -2.453125 C 1.410156 -2.523438 1.550781 -2.5625 1.71875 -2.5625 C 1.90625 -2.5625 2.054688 -2.519531 2.171875 -2.4375 C 2.296875 -2.363281 2.382812 -2.253906 2.4375 -2.109375 L 2.484375 -2.109375 C 2.554688 -2.265625 2.65625 -2.378906 2.78125 -2.453125 C 2.90625 -2.523438 3.054688 -2.5625 3.234375 -2.5625 C 3.753906 -2.5625 4.015625 -2.269531 4.015625 -1.6875 L 4.015625 0 L 3.390625 0 L 3.390625 -1.609375 C 3.390625 -1.753906 3.359375 -1.859375 3.296875 -1.921875 C 3.242188 -1.992188 3.148438 -2.03125 3.015625 -2.03125 C 2.671875 -2.03125 2.5 -1.796875 2.5 -1.328125 L 2.5 0 L 1.875 0 L 1.875 -1.609375 C 1.875 -1.753906 1.84375 -1.859375 1.78125 -1.921875 C 1.726562 -1.992188 1.632812 -2.03125 1.5 -2.03125 C 1.34375 -2.03125 1.21875 -1.972656 1.125 -1.859375 C 1.03125 -1.753906 0.984375 -1.582031 0.984375 -1.34375 L 0.984375 0 Z M 0.359375 0 "/></g></g></g></svg>